<?xml version="1.0" encoding="UTF-8"?>
<svg version="1.1" viewBox="0 0 2048 1485" width="2580" height="1872" xmlns="http://www.w3.org/2000/svg">
<path transform="translate(0)" d="m0 0h2048v1485h-2048z" fill="#F2F3F6"/>
<path transform="translate(1172,408)" d="m0 0h7l8 5 5 5 3-6 2-2h6l7 6 5 9v2l11 1 18 4 8 4 4 5v8l-1 6 5 6 2 6v8l-1 5 362 1 9 2 8 5 6 8 2 7v202l8 1 12 5 9 6 9 10 3 7 1 5v14l-3 13-7 16-10 16-12 16-9 11-1 115h9l3-10 6-15-1-8-6-23-3-19-1-20 2-16 4-12 7-10 9-6 11-4 7-1h9l15 3 16 8 11 9 5 6 5 11 1 3v18l-5 12-7 10-13 13-16 10-15 7-19 6-12 3-10 25h48l2 2v7l-26 69-1 3h36l2 2v24l-2 2h-18l17 85v4h-27l-4-10-17-55-7-23-45-1-2 9-23 74-3 6h-26v-8l16-79 1-2h-19l-2-2v-24l2-2h36l-13-35-14-37v-4h-775l-1-1v-10h-35l16 66 24 100 22 91 15 63 2 7v5h-28l-2-4-1 1h-182l-1-4v-12l5-34 3-3 5 1 4 2h7l12-4 7 1 6 5v2l-4 1-1 3 10-2 2 3-5 1 1 3 10-1-1 2h-3l1 3 10-1-4 4 2 1 7-2 3-20 2-2h5l5 3 10-1 8-3h6l8 6-1 2-4 1v2l9-1 3 3-5 2v2l11-1-4 3v2l11-1-3 2h-2v3l12-2v2h-4v3l8-1 3-1 1 2-4 2 4 1 9-1 12 7 4 4-2-11-24-99-13-54-4-17v-3h-21v32l-2 45-2 21h-42l-5-22-8-49-2-27h-11v44l-3 52-1 2h-41l-2-6-8-42-4-28-1-11v-11l-223 1-13 54-13 53-19 79-3 12-1 1h-28l2-11 17-70 21-87 23-96 17-68h-52l-2-2v-21h-19l-5-4-1-2v-17l2-4 3-2h32l-6-45 1-5h10l-3-18 1-4 2 8 2 13 2 1-3-15v-7h1l3 18v4h5v-25h9l1 9 3-6h2l1-6 7-11 11-13 11-11h2l2 15 1 13v24l-3 26-2 10 1 6 4 4 4 1 3-12 20-3h6l-14-41-15-45v-2l-7-1-2-4-3-19-3-16-1-7v-9l4-14 4-8 4-5 12-7 5-15 5-23 2-20 1-45 4-20 7-14 8-7 8-3h15l10 4 8 6 6 8v1l-16 3-14 7-7 7-7 13-3 12v20l4 14 1 2 3 1-5-14-1-7v-13l3-13 6-12 4-5 10-7 11-4 11-2h12l17 5 13 7 14 9 6 5 5 9 1 9-5 1-3-1v10l-1 5-5-1-3-16-3 6-5-1-11-13-2-3-4 2-13 8-10 3h-9l-3 11-5 15-1 5h-2l-4-15-5-1-6 2-2 6v9l1 6-6 4-2 4v8l4 6-2-5-1-5 3-7 4-3h2l5 5 7 1-1-1-7-6v-2l6 2v-7h-7l3-3h2l-5-7 4 1 4 5 2 4v10l5 1-2 3v11l5 4 15 8 12 4v8l-2 2-13-7-9-7-10-10h-3v2l-5 3-11-1-2 6-6 10h5l12 22 10 14 7 7 7 4h11l5-3 4-9 1-5 1-14 11 3 17 7 10 6 6 9 6 18 8 30 3 8 16-67 4-5 2-1h189v-194l4-10 9-8 10-3 357-1-1-5v-12l2-7-5-2-6-5-4-7-1-8 3-5 9-3-4-6-1-7z" fill="#383637"/>
<path transform="translate(1226,452)" d="m0 0h8l3 3-1 5-1 7 3 6-2 5-1 4 3 4v8l5-1 6-5 6-1 6 5 1 7-3 9-4 5 323 1 4 2 1 2v266h-19l-13 3-14 7-10 9-7 9-4 12v13l5 14 8 12 6 7 14 11 16 9 17 7 1 1-1 7-2 2h-749l-3-4v-385l5-4h139l2 6 13 74 2 5 7 6-1-8-9-39-10-42v-2h202l-2-5-3-5v-13l4-5h2v-9h9l8-5-2-4h-8l-7 2v-7l4-8 1-1 9 1 9 3h8l12-4z" fill="#FDB027"/>
<path transform="translate(465,528)" d="m0 0h15l10 4 8 6 6 8v1l-16 3-14 7-7 7-7 13-3 12v20l4 14 1 2 3 1-5-14-1-7v-13l3-13 6-12 4-5 10-7 11-4 11-2h12l17 5 13 7 14 9 6 5 5 9 1 9-5 1-3-1v10l-1 5-5-1-3-16-3 6-5-1-11-13-2-3-4 2-13 8-10 3h-9l-3 11-5 15-1 5h-2l-4-15-5-1-6 2-2 6v9l1 6-6 4-2 4v8l4 6-2-5-1-5 3-7 4-3h2l5 5 7 1-1-1-7-6v-2l6 2v-7h-7l3-3h2l-5-7 4 1 4 5 2 4v10l5 1-2 3v11l5 4 15 8 12 4v8l-2 2-13-7-9-7-10-10h-3v2l-5 3-11-1-2 6-6 10h5l12 22 10 14 7 7 7 4h11l5-3 4-9 1-5 1-14 11 3 17 7 10 6 6 9 6 18 8 30 3 10-1 9-14 59 1 6 3 2 9 1h195l5-5 12-51h1v90h17l5 4 1 3v15l-3 5-3 2h-6v22l-1 1-10 1-35-1 16 66 24 100 22 91 15 63 2 7v5h-28l-2-4-1 1h-182l-1-4v-12l5-34 3-3 5 1 4 2h7l12-4 7 1 6 5v2l-4 1-1 3 10-2 2 3-5 1 1 3 10-1-1 2h-3l1 3 10-1-4 4 2 1 7-2 3-20 2-2h5l5 3 10-1 8-3h6l8 6-1 2-4 1v2l9-1 3 3-5 2v2l11-1-4 3v2l11-1-3 2h-2v3l12-2v2h-4v3l8-1 3-1 1 2-4 2 4 1 9-1 12 7 4 4-2-11-24-99-13-54-4-17v-3h-21v32l-2 45-2 21h-42l-5-22-8-49-2-27h-11v44l-3 52-1 2h-41l-2-6-8-42-4-28-1-11v-11l-223 1-13 54-13 53-19 79-3 12-1 1h-28l2-11 17-70 21-87 23-96 17-68h-52l-2-2v-21h-19l-5-4-1-2v-17l2-4 3-2h32l-6-45 1-5h10l-3-18 1-4 2 8 2 13 2 1-3-15v-7h1l3 18v4h5v-25h9l1 9 3-6h2l1-6 7-11 11-13 11-11h2l2 15 1 13v24l-3 26-2 10 1 6 4 4 4 1 3-12 20-3h6l-14-41-15-45v-2l-7-1-2-4-3-19-3-16-1-7v-9l4-14 4-8 4-5 12-7 5-15 5-23 2-20 1-45 4-20 7-14 8-7z" fill="#00B36F"/>
<path transform="translate(833,514)" d="m0 0h139l2 6 13 74-1 4-3-1h-7l1 6 3 5-7-1-3 1-1 7 4 4v2l-7 3-1 4 3 5-1 3-6 4v5l5 3 9 2 8 8 11 6-1 7 12 16 1 3 5 5 4 5v2l3 1 9 11 17 17 16 12 15 8 9 3 5 1h15l10-3 10-6 10-9 10-10 1-2h2l-2 18-9 53-7 33-1 3h-215l1 59 4 1h575l2-1v-49l-283-1v-7l1-1 95-1 6-39 5-45 1-11v-71l5 2 13 10 13 8 12 6 8 2h19l13-4 12-7 14-12 11-14 7-10 9-16 12-25 4-12 3-1 2-4 4-10 2-10 5-5 2-3v-5h-10l-2-8-5-1-4 1-1-9-1-1h-5l-4 4-1-28h121l4 2 1 2v266h-19l-13 3-14 7-10 9-7 9-4 12v13l5 14 8 12 6 7 14 11 16 9 17 7 1 1-1 7-2 2h-749l-3-4v-385z" fill="#F3F4F7"/>
<path transform="translate(465,528)" d="m0 0h15l10 4 8 6 6 8v1l-16 3-14 7-7 7-7 13-3 12v20l4 14 1 2 3 1-5-14-1-7v-13l3-13 6-12 4-5 10-7 11-4 11-2h12l17 5 13 7 14 9 6 5 5 9 1 9-5 1-3-1v10l-1 5-5-1-3-16-3 6-5-1-11-13-2-3-4 2-13 8-10 3h-9l-3 11-5 15-1 5h-2l-4-15-5-1-6 2-2 6v9l1 6-6 4-2 4v8l4 6-2-5-1-5 3-7 4-3h2l5 5 7 1-1-1-7-6v-2l6 2v-7h-7l3-3h2l-5-7 4 1 4 5 2 4v10l5 1-2 3v11l5 4 15 8 12 4v8l-2 2-13-7-9-7-10-10h-3v2l-5 3-11-1-2 6-6 10h5l12 22 10 14 7 7 7 4h11l5-3 4-9 1-5 1-14 11 3 17 7 10 6 6 9 6 18 8 30 3 10-1 9-14 59 1 6 3 2 9 1h195l5-5 12-51h1v90l-87 1h-180l-180-1-6-45 1-5h10l-3-18 1-4 2 8 2 13 2 1-3-15v-7h1l3 18v4h5v-25h9l1 9 3-6h2l1-6 7-11 11-13 11-11h2l2 15 1 13v24l-3 26-2 10 1 6 4 4 4 1 3-12 20-3h6l-14-41-15-45v-2l-7-1-2-4-3-19-3-16-1-7v-9l4-14 4-8 4-5 12-7 5-15 5-23 2-20 1-45 4-20 7-14 8-7z" fill="#FD9B77"/>
<path transform="translate(419,934)" d="m0 0h253l20 8 20 9 11 7 6 7 5 13 5 25 2 19 1 28 16-1 2-1 1 7 2 11h-21v32l-2 45-2 21h-42l-5-22-8-49-2-27h-11v44l-3 52-1 2h-41l-2-6-8-42-4-28-1-11v-11h-223l1-9 2-7h219l-1-10-1-25h-21l-18-1-20 1h-20l-27-1-29-4-21-6-14-6-12-8-7-6-9-12 9-37z" fill="#353537"/>
<path transform="translate(913,842)" d="m0 0h583v49l-5 2h-575l-3-2z" fill="#353537"/>
<path transform="translate(1695,796)" d="m0 0h9l15 3 16 8 11 9 5 6 5 11 1 3v18l-5 12-7 10-13 13-16 10-15 7-19 6-12 3-10 25h48l2 2v7l-26 69-1 3h36l2 2v24l-2 2h-18l17 85v4h-27l-4-10-17-55-7-23-45-1-2 9-23 74-3 6h-26v-8l16-79 1-2h-19l-2-2v-24l2-2h36l-13-35-14-37-1-5 3-4 44-1h31l9 1 3-10 6-15-1-8-6-23-3-19-1-20 2-16 4-12 7-10 9-6 11-4z" fill="#0076F8"/>
<path transform="translate(976,514)" d="m0 0h202l2 12 4 8 5 4 10 3v5l-8 4-7 9-1 3-8 4-16 5-9 6-4 6-3 20-6 20-6 15-9 19-7 11-12 16-8 9-4 1-11-8-13-12-12-11-6-8-8-7-8-9-4 1-5 3-1-22-3-13-1-3-4-1h-7l-7 3h-3l-4-15-17-71z" fill="#F3F4F7"/>
<path transform="translate(465,528)" d="m0 0h15l10 4 8 6 6 8v1l-16 3-14 7-7 7-7 13-3 12v20l4 14 1 2 3 1-5-14-1-7v-13l3-13 6-12 4-5 10-7 11-4 11-2h12l17 5 13 7 14 9 6 5 5 9 1 9-5 1-3-1v10l-1 5-5-1-3-16-3 6-5-1-11-13-2-3-4 2-13 8-10 3h-9l-3 11-5 15-1 5h-2l-4-15-5-1-6 2-2 6v9l1 6-6 4-2 4v8l4 6-2-5-1-5 3-7 4-3h2l5 5 7 1-1-1-7-6v-2l6 2v-7h-7l3-3h2l-5-7 4 1 4 5 2 4v10l5 1-2 3v11l5 4 15 8 12 4v8l-2 2-13-7-9-7-10-10h-3v2l-5 3-11-1-2 6-6 10h5l12 22 10 14 7 7 7 4h11l5-3 4-9 1-5 1-14 11 3 17 7 7 4 1 19 4 18 5 12 5 37v22l-5 10-10 11h-3l-2 4-6 2h-30l-19-3-5-2-3-9-18-65-15-55-3-13-7-10-8-5h-13l8-32 3-26 1-45 4-20 7-14 8-7z" fill="#0076F8"/>
<path transform="translate(673,934)" d="m0 0h87l16 66 24 100 22 91 15 63 2 7v5h-28l-2-4-1 1h-182l-1-4v-12l5-34 3-3 5 1 4 2h7l12-4 7 1 6 5v2l-4 1-1 3 10-2 2 3-5 1 1 3 10-1-1 2h-3l1 3 10-1-4 4 2 1 7-2 3-20 2-2h5l5 3 10-1 8-3h6l8 6-1 2-4 1v2l9-1 3 3-5 2v2l11-1-4 3v2l11-1-3 2h-2v3l12-2v2h-4v3l8-1 3-1 1 2-4 2 4 1 9-1 12 7 4 4-2-11-24-99-13-54-8-34v-3l-1 1h-16l-1-7-2-31-3-21-5-19-5-10-7-6-16-8-25-11-5-2z" fill="#01B46F"/>
<path transform="translate(390,934)" d="m0 0h28l-1 10-7 28 7 9 5 5 7 6 14 8 21 7 20 4 17 2 27 1h20l26-1 33 2 1 3 1 32h-219l-2 11-6 26-35 145-8 33-1 1h-28l2-11 17-70 21-87 23-96 12-48z" fill="#01B46F"/>
<path transform="translate(675,1008)" d="m0 0h4l2 41 60 1v-7h1v7l16-1 2-1 1 7 2 11h-21v32l-2 45-2 21h-42l-5-22-8-49-2-27h-11v44l-3 52-1 2h-41l-2-6-8-42-4-28-1-11v-11h-223l1-9 2-7h280l-2-33v-7z" fill="#017B54"/>
<path transform="translate(1253,514)" d="m0 0h201l-2 5-4 13-3 18-1 2-11 3-3 3v7l4 9 4 7-1 5-12 18-10 14-11 12-9 9-10 6-5-1-13-10-14-12-11-10-8-7-16-15-14-12-8-8-10-5-17-4-5-3-6-9-8-6-4-2v-20l1-5z" fill="#F3F4F7"/>
<path transform="translate(410,1066)" d="m0 0h170l5 35 18 134 2 13v11l-4 4h-7l-4-4-3-20-8-59-4-28-18-7-31-11-30-11-7 1-34 12-38 14h-2l-3 25-11 82-3 5-2 1h-6l-4-3-1-7 16-121 8-60z" fill="#FDB027"/>
<path transform="translate(701,388)" d="m0 0 14 1 15 5 11 7 11 11 7 12 4 14 1 11-2 14-4 11-7 11-11 11-12 7-13 4h-23l-13-4-11-6-10-9-7-9-6-13-2-9v-18l3-12 5-10 7-9 7-7 11-7 15-5z" fill="#F3F4F7"/>
<path transform="translate(336,910)" d="m0 0h476v1h-6v22l-1 1-10 1h-377l-80-1-2-2z" fill="#017C54"/>
<path transform="translate(1562,1021)" d="m0 0h157l2 2v24l-2 2h-18l17 85v4h-27l-4-10-17-55-7-23-45-1-2 9-23 74-3 6h-26v-8l16-79 1-2h-19l-2-2v-24z" fill="#55575B"/>
<path transform="translate(1260,481)" d="m0 0h363l9 2 8 5 6 8 2 7v202l8 1 12 5 4 3h-2l-2 6-9 21-9 27-6 26-2-1-4-54-3-31-1-2 4 44 3 43v6l-2-1-7-27-8-23-11-26-5-11 6-3h2l-1-206-4-9-5-6-7-4-339-1z" fill="#625A57"/>
<path transform="translate(465,528)" d="m0 0h15l10 4 8 6 6 8v1l-16 3-14 7-7 7-7 13-3 12v20l4 14 1 2 3 1-5-14-1-7v-13l3-13 6-12 4-5 10-7 11-4 11-2h12l17 5 13 7 14 9 6 5 5 9 1 9-5 1-3-1v10l-1 5-5-1-3-16-3 6-5-1-11-13-2-3-4 2-13 8-10 3h-9l-3 11-5 15-1 5h-2l-4-15-5-1-6 2-2 6v9l1 6-6 4-2 4v8l4 6-2-5-1-5 3-7 4-3h2l5 5 7 1-1-1-7-6v-2l6 2v-7h-7l3-3h2l-5-7 4 1 4 5 2 4v10l5 1-2 3v11l5 4 15 8 12 4v8l-2 2-13-7-9-7-10-10h-3v2l-5 3-11-1-2 6-7 10-28 3h-5l8-32 3-26 1-45 4-20 7-14 8-7z" fill="#363638"/>
<path transform="translate(1695,796)" d="m0 0h9l15 3 16 8 11 9 5 6 5 11 1 3v18l-5 12-7 10-13 13-16 10-15 7-19 6-12 3-9 23-3 2-1-2 9-23-1-8-6-23-3-19-1-20 2-16 4-12 7-10 9-6 11-4z" fill="#00AE6C"/>
<path transform="translate(409,972)" d="m0 0 4 4 7 9 12 9 16 8 20 6 24 4 9 1 27 1h20l26-1 33 2 1 3 1 32h-218l1-8 14-59z" fill="#FDAF28"/>
<path transform="translate(742,1066)" d="m0 0h21l18 74 19 78 7 29-1 4-7-6-9-5-13 1v-3l2-2-6 2-5-1 1-3h4v-2l-6 2h-6v-3-1l-6 1v-4l2-1-9 1v-4l4-2-3-1-8 1v-4l4-2-9-6-1-29v-15l2-1 2-21 2-45z" fill="#F3F4F7"/>
<path transform="translate(670,1066)" d="m0 0h11l1 3 3 31 7 42 4 19v3h41l-2 1 2 43-10 4-7 2h-6l-5-3h-5l-2 5-2 16-9 3-2-3 3-2-8 1-1-4 3-1-9 1-1-4 4-2-2-1-9 1 1-4h4l-5-5-3-2-8 1-9 3h-7l-8-5-4-22-2-14v-8l-3-1h41l3-54z" fill="#F3F4F7"/>
<path transform="translate(661,1209)" d="m0 0 7 1 6 5v2l-4 1-1 3 10-2 2 3-5 1 1 3 10-1-1 2h-3l1 3 10-1-4 4 2 1 7-2 3-20 2-2h5l5 3 10-1 8-3h6l8 6-1 2-4 1v2l9-1 3 3-5 2v2l11-1-4 3v2l11-1-3 2h-2v3l12-2v2h-4v3l8-1 3-1 1 2-4 2 4 1 9-1 12 7 6 7 1 2v7l-1 1h-182l-1-4v-12l5-34 3-3 5 1 4 2h7z" fill="#0076F8"/>
<path transform="translate(1588,743)" d="m0 0 5 3 7 8 10 12 12 18 13 25 7 19v61l-2 29-3 21h-20l-1-1-1-82-5 21-7 21-1 2h-2l-2-4-2-18v-18l2-18 4-16 5-14 4-8 3 4 1 3-1-6-3-2h-2l-2 6-6 16-4 17-2 18v26l-2-3-4-14-3-17-2-19v-44l1-5 6 1 9 5 3 2-9-16-5-15-1-5z" fill="#575759"/>
<path transform="translate(794,792)" d="m0 0h1v90l-87 1h-180l-4-2 4-11 1-1 111-1h30l3-19 104-1 5-5z" fill="#F3F4F7"/>
<path transform="translate(1618,1049)" d="m0 0h45l3 8 21 67 4 14h-100l2-9 18-58z" fill="#F3F4F7"/>
<path transform="translate(1219,572)" d="m0 0 4 4 7 10-1 5-4 6 1 18 7 65 2 24 3 25 1 15 2 18-1 5-14 27-8 16-3 5h-2l-9-21-4-10-7-17v-11l5-36 3-24 5-36 6-48 2-15-5-8 1-5z" fill="#353537"/>
<path transform="translate(1561,1151)" d="m0 0h25l-1 7-3 9h117l-3-10v-6h24l2 3 23 114v4h-13l-8-25-20-65v-2l-126 1-17 54-11 36-1 1h-12l-1-3 23-113z" fill="#393839"/>
<path transform="translate(606,696)" d="m0 0h189v1h-179l-2 11-9 41-9 39-9 40-1 3h199l-2 12-4 5-2 1h-195l-9-1-4-3-1-6 11-46 4-16 3-16 14-59 4-5z" fill="#535962"/>
<path transform="translate(1226,452)" d="m0 0h8l3 3-1 5-1 7 3 6-2 5-1 4 3 4v8l5-1 6-5 6-1 6 5 1 7-3 9-6 7-6 1-1 27-5 6-9 7-11 5-6-1-7-4v-2l11-7 11-11-4 1-11 4-5 1h-10v5h-1v-6l-8-1-6-4-4-5-3-8-1-13-4-6v-13l4-5h2v-9h9l8-5-2-4h-8l-7 2v-7l4-8 1-1 9 1 9 3h8l12-4z" fill="#FB9973"/>
<path transform="translate(311,899)" d="m0 0h506v8l-3 3-497 1-5-4-1-2z" fill="#01B46F"/>
<path transform="translate(682,1066)" d="m0 0h59l1 1v31l-2 45-2 21h-42l-5-22-8-49-1-11z" fill="#363637"/>
<path transform="translate(610,1066)" d="m0 0h60v44l-3 52-1 2h-41l-2-6-8-42-4-28-1-11z" fill="#353537"/>
<path transform="translate(532,579)" d="m0 0 4 2 7 9 4 5 5 2 2-7 2 1 2 8v8l-10 2-6 5h-2l2 17 2 4 5 2 9 1 1 2-4 8 2 9-3 7-4 4-2 1h-9l-4-2-13-1-1 2v-2l-12-3-17-9-1-3-3-1v-11l2-2-4-1-1-2v-9l-5-8h-2l3 3v2l-4 2h6l1 1v8l-7-3 5 5 4 3-1 2-9-2-3-3v-2l-6 4-2 8 3 6-1 3-4-5-1-2v-8l4-6 5-2-2-6v-9l3-6 6-3 6 2 3 12v3h2l1-8 7-21 1-2 14-2 12-6z" fill="#FD9B75"/>
<path transform="translate(664,601)" d="m0 0h78l2 2 1 5v41l-2 6-1 1h-9l-4 16h-2l-7-14v-2h-56l-3-3v-48z" fill="#FC635C"/>
<path transform="translate(426,1066)" d="m0 0h138l3 16-1 4-72 26-21-7-47-17-3-3 2-16z" fill="#F3F4F7"/>
<path transform="translate(564,1066)" d="m0 0h16l5 35 18 134 2 13v11l-4 4h-7l-4-4-3-20-8-59-4-29-1-9-12-5-42-15-12-5 2-2 34-12 22-8h2v-9l-2-1z" fill="#FDB027"/>
<path transform="translate(417,942)" d="m0 0 2 3 7 16 8 11 10 9 14 8 18 6 14 3 18 2h35l28-3 33-5h8l4 2 3 8 2 18 1 17v13h-13l-1-10-1-25h-21l-18-1-20 1h-20l-27-1-29-4-21-6-14-6-12-8-7-6-9-12 7-28z" fill="#363537"/>
<path transform="translate(1563,1136)" d="m0 0 1 2 27-1 129 1 4 4-1 7-3 3-24-1 3 12v4h-117l2-9 2-7h-25l-1 3-3-6v-7l4-3h2z" fill="#655B57"/>
<path transform="translate(701,388)" d="m0 0 14 1 15 5 11 7 11 11 7 12 4 14 1 11-2 14-4 11-7 11-11 11-12 7-13 4h-23l-13-4-11-6-10-9-7-9-6-13-2-9v-18l3-12 5-10 7-9 7-7 11-7 15-5zm-7 12-10 3-11 6-9 9-6 10-3 8-1 6v13l4 13 6 10 9 9 11 6 9 3h20l12-4 9-6 6-5 8-12 4-13v-16l-4-13-7-10-5-5-9-7-14-5z" fill="#0076F7"/>
<path transform="translate(1128,831)" d="m0 0 84 1v9h283v1h-582v-10z" fill="#F96756"/>
<path transform="translate(431,1027)" d="m0 0h128l2 11 1 12h-134l2-21z" fill="#F3F4F7"/>
<path transform="translate(585,834)" d="m0 0h199l-1 9-4 5-2 1h-195l2-12z" fill="#383739"/>
<path transform="translate(1230,534)" d="m0 0v3l-11 11-9 6h-2v2l10 4 6-1 9-5 6-5h2l2-4 4-4 8 4 7 8 3 5-1 6-10 19-8 11-5 5-3-1-7-9-2-3-9-12-1-1-9 13-2 3-7 9h-3l-14-26-3-6v-4h2l1-5 7-8 6-3h2l1-4 15-2 13-5z" fill="#FDB027"/>
<path transform="translate(563,1086)" d="m0 0h5v9l-30 11-28 10-1 1 59 21 6 3 1 1 1 9-5-1-37-13-30-11-8-3-7 1-34 12-38 14h-2v-7l1-3 9-4 38-14 15-5-51-19-5-2v-9l7 1 39 14 25 9 20-7 45-16z" fill="#EB8841"/>
<path transform="translate(1664,1049)" d="m0 0h36l3 10 15 75v4h-27l-4-10-17-55-6-19z" fill="#383738"/>
<path transform="translate(1581,1049)" d="m0 0h36l-1 9-23 74-3 6h-26v-8l16-79z" fill="#383738"/>
<path transform="translate(378,806)" d="m0 0 9 1-2 18-1 7h6l-1 14-4 31-1 5h-36l-6-45 1-5h10l-3-18 1-4 2 8 2 13 2 1-3-15v-7h1l3 18v4h5v-25h9l1 9 3-6h2z" fill="#F66A54"/>
<path transform="translate(408,769)" d="m0 0h2l2 15 1 13v24l-3 26-2 10 1 6 4 4 4 2v11l-1 2h-32l1-13 5-37h-6l1-14 2-11h-7l-1-3 7-11 11-13z" fill="#FCAF28"/>
<path transform="translate(976,596)" d="m0 0h7l5 1 5 5 4 3 1 2 10-4h7l4 2 3 6 2 10v18l-1 6-13 9h-2l-7-28-5-1-3 1 2 3v8l4 22 4 1-6 4h-6l-10-7-8-7-9-2-4-3v-5l7-5-2-5-1-4 3-4 6-1-5-6 1-7 6-2h3l-3-5z" fill="#FD9C76"/>
<path transform="translate(1588,743)" d="m0 0 5 3 7 8 10 12 12 18 13 25 6 16-1 4-10-8-10-9-8-9h-3l-2 6-6 16-4 17-2 18v26l-2-3-4-14-3-17-2-19v-44l1-5 6 1 9 5 3 2-9-16-5-15-1-5z" fill="#01AE6C"/>
<path transform="translate(1695,796)" d="m0 0h9l15 3 11 5-6 8-7 10-14 23-12 21-5 9-1-4 4-21 2-18 1-17v-15l-3 42-4 24-6 23-3 6h-1v-40l-2-14-4-15-4-10-2-2 5-7 9-6 11-4z" fill="#00AF6D"/>
<path transform="translate(1564,783)" d="m0 0h18l1 1v49l3 25 1 11-3-4-17-35-15-30-5-9-2-1 14 27 8 15 11 23 8 17-1 2-9-12-7-9-9-11-4-5-32-32 10-10 10-6 14-5z" fill="#00AF6D"/>
<path transform="translate(1454,514)" d="m0 0h3l1 3 1 23 3-3h5l2 2 1 8 7-1 3 4v6l2-1h6l3 3-1 5-5 5-2 6-4 13-4 6-5 3-12-1-12-6-9-8-6-10-2-6v-7l4-4 7-2h4l3-20 5-15z" fill="#FD9D74"/>
<path transform="translate(817,889)" d="m0 0h1v15h-1v-5h-506l1-5h505z" fill="#017C54"/>
<path transform="translate(1308,659)" d="m0 0 9 6 3 1 1 14v57l-4 39-5 38-3 18-1 1h-17l1-8 7-37 4-29 3-34 1-16z" fill="#FDB027"/>
<path transform="translate(682,1066)" d="m0 0h13l4 45 4 29h35l1-9h1v12l-2 21h-42l-5-22-8-49-1-11z" fill="#3A3839"/>
<path transform="translate(610,1066)" d="m0 0h13l2 20 4 37 3 16 34 1 2-2v11l-1 13-1 2h-41l-2-6-8-42-4-28-1-11z" fill="#3A3839"/>
<path transform="translate(409,764)" d="m0 0 8 1 28 82 1 6-22 3h-4l-1 10-2 3-6-2-4-6 1-9 3-20 1-11v-24z" fill="#0076F9"/>
<path transform="translate(1197,732)" d="m0 0 4 2 36 36-3 9-12 23-7 13h-2l-9-21-4-10-7-17v-11l3-21z" fill="#353537"/>
<path transform="translate(673,934)" d="m0 0h58l10 40 14 58 4 17-1 1h-16l-1-7-2-31-3-21-5-19-5-10-7-6-16-8-25-11-5-2z" fill="#F3F4F7"/>
<path transform="translate(1219,572)" d="m0 0 4 4 7 10-1 5-4 6 1 18 7 65v9l-7-6-20-20 2-21 6-42-1-4-4-7 1-5z" fill="#353537"/>
<path transform="translate(996,624)" d="m0 0 6 2 6 25v3l11-7 4-2v-6l2 3 5-4 4 1 11 12 5 4-1 3-15 11-11 9-13 11-4 2-6-9-8-11 1-5 1-2 7-4-3-3-4-20v-8l-1-3z" fill="#FDB027"/>
<path transform="translate(1586,1152)" d="m0 0h109l4 11v4h-117l2-9z" fill="#F3F4F7"/>
<path transform="translate(625,1164)" d="m0 0h41l-2 1 1 23v21l-16 5h-7l-8-5-4-22-2-14v-8z" fill="#FDAF27"/>
<path transform="translate(697,1164)" d="m0 0h40l-2 1 2 43-10 4-7 2h-6l-8-4-4-21-3-19v-5z" fill="#FDAF27"/>
<path transform="translate(1605,713)" d="m0 0h2l8 16 11 27 8 26 5 21 2 11-1 4-11-24-11-19-9-12-9-11-10-10-2-1 2-10 6-10z" fill="#01AE6C"/>
<path transform="translate(1522,808)" d="m0 0h3v2l4 2 27 27 9 11 12 15 16 24-1 3-15-15-2-1v-2l-4-2-14-11-20-12-15-7-6-2-1-3v-13l4-12z" fill="#01AF6D"/>
<path transform="translate(1750,824)" d="m0 0 4 4 3 8v18l-1 3-14 4-17 8-20 12-13 10-13 11-3 2 2-5 12-16 9-11 12-13 17-17 11-9z" fill="#01AF6D"/>
<path transform="translate(1635,704)" d="m0 0h13l16 5 8 4-2 1-2 6-9 21-9 27-6 26-2-1-4-54-3-31z" fill="#00AF6D"/>
<path transform="translate(566,1095)" d="m0 0h2l2 10 4 31v5l-29-10-36-13-1-2 47-17z" fill="#F3F4F7"/>
<path transform="translate(1517,842)" d="m0 0 9 3 16 8 18 12 11 9 10 9 7 6 7 8 3 3v2l-10-2-9-3-18-8-15-9-13-11-8-10-6-10z" fill="#00B16E"/>
<path transform="translate(1751,859)" d="m0 0h3l-1 5-7 11-14 14-16 10-15 7-19 6-8 2-4-1 13-13 11-9 12-9 13-8 19-10z" fill="#00B16E"/>
<path transform="translate(422,1096)" d="m0 0 13 4 44 16-1 2-37 13-22 8h-3l3-26z" fill="#F3F4F7"/>
<path transform="translate(1672,714)" d="m0 0 5 3 9 10 3 7 1 7-5 3-10 10-12 17-11 21-7 20h-1v-10l4-22 7-25 11-28z" fill="#00AE6C"/>
<path transform="translate(1246,541)" d="m0 0 7 3 8 7 3 7-10 19-8 12-4 5-4-1-10-14-7-9v-10l12-6 6-5h2l2-4z" fill="#FEB127"/>
<path transform="translate(1440,552)" d="m0 0h5l6 5 1 5-3 3-12 2h9l6-3 3-2-2 10v9l3 5 4 1-5-5-1-2v-8l3-10 2 4h7l3-1 1 8 3 1 9-2v7l-4 10-5 5-3 2-12-1-12-6-9-8-6-10-2-6v-7l4-4z" fill="#FD9C77"/>
<path transform="translate(1611,804)" d="m0 0 3 4 3 12v22l-3 20-7 25-5 13h-2l-2-4-2-18v-18l2-18 4-16 5-14z" fill="#01AE6C"/>
<path transform="translate(1688,743)" d="m0 0h2v10l-3 13-7 16-10 16-12 16-9 11-3 3h-2v-7l6-21 9-20 10-16 9-11z" fill="#00B16E"/>
<path transform="translate(1662,816)" d="m0 0h2l5 14 4 17 1 8v34l-3 18-3 6-2-3-5-17-4-20-2-21 1-18 3-12z" fill="#00B06E"/>
<path transform="translate(486,650)" d="m0 0 14 14 13 8 7 4-1 11-5 4-6 2h-8l-12-4-10-7-9-8 3-1 6-12 2-5 4-2v-2h2z" fill="#FC9A75"/>
<path transform="translate(572,1014)" d="m0 0h14l21 1 1 3 1 32h-31l-1-1-4-31z" fill="#F3F4F7"/>
<path transform="translate(1200,706)" d="m0 0 3 2v2l3 1v2l4 2 29 29 2 18-1 5-3 4-38-38-2-1 1-12z" fill="#353537"/>
<path transform="translate(1691,798)" d="m0 0 2 2v15l-2 27-4 25-1 6 14-25 14-23 13-19h3l-13 20-8 13-13 22-14 27v2l7-9 11-13 11-12 15-15 11-9 8-7 4-3h2l-2 4-10 8-14 12-21 21-9 11-12 15-6 9 20-16 13-9 15-9 20-9 6-2h4v2l-17 6-23 12-16 11-11 9-13 12-5 6-9 23-3 2-1-2 10-25 3-6 3-18v-34l-3-18-5-16-2-6 3 1 5 13 4 17 1 9v38l4-11 5-21 3-19z" fill="#37373A"/>
<path transform="translate(1628,704)" d="m0 0h5l1 5 4 41 3 43v6l-2-1-7-27-8-23-11-26-5-11 11-5z" fill="#01AE6C"/>
<path transform="translate(976,596)" d="m0 0h7l5 1 9 9-3 13-1 5h-8l-3-1 1 2 9 4-2 4-12 2-1 2 6 2 4 4-1 3-11 4-9-1-6-4v-5l7-5-2-5-1-4 3-4 6-1-5-6 1-7 6-2h3l-3-5z" fill="#FD9C75"/>
<path transform="translate(532,579)" d="m0 0 4 2 7 9 4 5 5 2 2-7 2 1 2 8v8l-10 2-6 5h-2l1 13-7-1-2-1 3-10 2-1-3-2-4-8-5-3-9-1-8 4-3 4-9-2-2-2 4-11 14-2 12-6z" fill="#FB9970"/>
<path transform="translate(559,703)" d="m0 0 5 5 5 10 4 13 8 30 3 10-1 9-9 38-3-3 1-5v-22l-5-37-6-16-3-14v-17z" fill="#FC9B72"/>
<path transform="translate(363,934)" d="m0 0h27l-2 11-11 46-1 2h-2l-5-11-3-15-3-25z" fill="#FDAF28"/>
<path transform="translate(693,1142)" d="m0 0h15l31 1v13l-1 8h-42l-3-14z" fill="#373637"/>
<path transform="translate(621,1142)" d="m0 0 46 1v19l-1 2h-41l-2-6-2-10z" fill="#363637"/>
<path transform="translate(1166,625)" d="m0 0h28l1 5v8l-3 14-6 7-2 1h-8l-6-4-4-9-1-5v-15z" fill="#FEB127"/>
<path transform="translate(470,675)" d="m0 0 8 6 10 7 12 4h8l8-3 4-2v16l-3 9-6 5-5 1-8-3-8-7-8-10-12-21z" fill="#0076F7"/>
<path transform="translate(1197,732)" d="m0 0 4 2 36 36-3 9-3 5-4-1-32-32v-10z" fill="#353537"/>
<path transform="translate(639,711)" d="m0 0h8l5 3 4 5 1 8-5 10-5 4-4 2h-11l-6-4-2-4v-10l4-7 6-5z" fill="#EFA42B"/>
<path transform="translate(417,942)" d="m0 0 2 3 7 16 8 11 10 9 14 8 18 6 14 3 18 2h35l28-3 33-5h8l4 2 3 8 2 18 1 17v13h-3l-2-32-3-22h-11l-48 7-13 1h-32l-19-2-19-4-12-4-17-9-12-11-9-12-5-11-1-7z" fill="#575759"/>
<path transform="translate(346,861)" d="m0 0h40v8l-2 13h-36l-2-15z" fill="#EF6854"/>
<path transform="translate(689,615)" d="m0 0h9l3 2 5-1 2-1h9l4 4v8l-6 8-7 7-4 3-4-1-8-7-6-7-2-5 1-6z" fill="#F3F4F7"/>
<path transform="translate(378,806)" d="m0 0 9 1-2 18-1 7 5 1v3l-47 1 1-5h10l-3-18 1-4 2 8 2 13 2 1-3-15v-7h1l3 18v4h5v-25h9l1 9 3-6h2z" fill="#F76F55"/>
<path transform="translate(702,762)" d="m0 0 8 1 5 3 3 5v10l-5 8-7 4h-10l-6-4-3-5v-8l4-8 5-4z" fill="#575759"/>
<path transform="translate(1438,582)" d="m0 0 4 2 5 5 11 5 14 1-1 6-5 12h-15l-9-4-8-7-3-5 1-5z" fill="#FDAF28"/>
<path transform="translate(476,615)" d="m0 0 4 1 4 5 2 4v10l5 1-2 3v11l5 4 15 8 12 4v8l-2 2-13-7-9-7-10-10h-3v2l-5 3-10-1-5-11 2-8 5-4h2l5 5 7 1-1-1-7-6v-2l6 2v-7h-7l3-3h2z" fill="#F4A42E"/>
<path transform="translate(399,1013)" d="m0 0 11 3 6 2v8l-3 23-1 1h-21l1-8z" fill="#F3F4F7"/>
<path transform="translate(625,1164)" d="m0 0h41l-2 1v18h-34l-2-10v-8z" fill="#FC9B73"/>
<path transform="translate(1276,630)" d="m0 0 6 4 17 14 9 7 12 9v2l-4-1-7-5-1 49-3 40-4 32-6 34-4 18h-3l2-12 6-32 5-36 2-22 1-18 1-44-1-13-14-11-3-2-10-2-1-3 4-1-5-4z" fill="#EA8643"/>
<path transform="translate(697,1164)" d="m0 0h40l-2 1v18h-33l-3-13v-5z" fill="#FC9A74"/>
<path transform="translate(753,793)" d="m0 0h7l3 2 5-1 2-1h7l3 2 1 7-6 9-11 9-5-1-8-8-3-5v-8z" fill="#FB625A"/>
<path transform="translate(516,601)" d="m0 0 9 1 5 4 3 7-1 8-5 6-5 2h-7l-6-4-3-3-1-3v-8l4-6 4-3z" fill="#FA9A71"/>
<path transform="translate(440,853)" d="m0 0h6l6 13-4 2-23 6-8 2v-8l3-12z" fill="#FB6359"/>
<path transform="translate(386,832)" d="m0 0h4l-1 14-1 1h-44l-1-4v-7h46v-3z" fill="#F66955"/>
<path transform="translate(1646,827)" d="m0 0h2v112h-9l3-26 2-36v-48z" fill="#786153"/>
<path transform="translate(1263,558)" d="m0 0h2l-1 6-10 19-8 11-5 5-3-1-7-9-2-3-9-12-1-1-9 13-2 3-7 9h-3l-14-26-3-6v-4h2l12 23 4 7h2l12-17 4-6 1-8h3l1 9 13 17 4 6h3l10-14 8-15z" fill="#EA8642"/>
<path transform="translate(1206,663)" d="m0 0 7 6 20 20 1 2 1 16-7-6-24-24 1-12z" fill="#353537"/>
<path transform="translate(1198,721)" d="m0 0 7 6 34 34 2 1-1 5-3 4-38-38-2-1z" fill="#353537"/>
<path transform="translate(1208,648)" d="m0 0 6 5v2l4 2 14 14 1 9v9l-7-6-20-20 1-13z" fill="#353537"/>
<path transform="translate(478,607)" d="m0 0 6 2 3 14-2 2-5-8h-2l3 3v2l-4 2h6l1 1v8l-7-3 5 5 4 3-1 2-9-2-3-3v-2l-6 4-2 8 3 6-1 3-4-5-1-2v-8l4-6 5-2-2-6v-9l3-6z" fill="#F9966C"/>
<path transform="translate(675,1008)" d="m0 0h4l1 24v18h-10l-2-33v-7z" fill="#F3F4F7"/>
<path transform="translate(551,609)" d="m0 0h9l2 1-1 8-2 6-3 1 3 2 1 8-2 2-8-1-7-6-1-2v-10l4-6z" fill="#FB9A6B"/>
<path transform="translate(970,793)" d="m0 0h8l5 3 1 6-1 3 2 5-3 5-3 2h-10l-5-4v-6l1-4-1-4 2-4z" fill="#4D4847"/>
<path transform="translate(993,793)" d="m0 0h7l5 4 2 5v7l-3 5-4 3h-8l-5-4-1-3v-10l3-5z" fill="#423D3C"/>
<path transform="translate(382,870)" d="m0 0 2 1 1 7-1 4h-36v-9l2-2z" fill="#FD605C"/>
<path transform="translate(1194,750)" d="m0 0 7 6 27 27 2 1-2 6-3 4v-3h-2l-7-8-23-23z" fill="#353537"/>
<path transform="translate(1691,798)" d="m0 0 2 2v15l-2 27-4 25-1 6 14-25 14-23 13-19h3l-13 20-8 13-13 22-14 27-3 1 2-10 6-29 2-19z" fill="#353537"/>
<path transform="translate(692,1066)" d="m0 0h3l4 45 4 29h35l1-9h1v12h-32l-15-1-1 4-1-7 8-1-4-27-3-36z" fill="#5A5859"/>
<path transform="translate(1219,572)" d="m0 0 4 4 7 10-1 5-8 12-3 1-9-15 1-5z" fill="#353537"/>
<path transform="translate(1e3 660)" d="m0 0h2l14 18-5 5-6 7-4-5-10-14 1-5 1-2z" fill="#FEB127"/>
<path transform="translate(621,1066)" d="m0 0h2l2 20 4 37 3 16 34 1 2-2v11h-1v-6h-47v-4l8 1-4-25-3-32-1-16z" fill="#595758"/>
<path transform="translate(1163,622)" d="m0 0h33l1 1v23l-5 12-8 5h-8l-6-3-4-5-3-8-1-7v-13zm3 3-1 2v15l4 13 5 4 2 1h8l7-6 3-9 1-7v-8l-1-5z" fill="#EA8643"/>
<path transform="translate(496,547)" d="m0 0h9l2 2-21 5-10 6-4 2-2 4-5 8-4 12-1 6v13l3 14 2 4v3l-4-1-4-11-1-5v-20l4-14 6-11 8-8 14-7z" fill="#F6A031"/>
<path transform="translate(991,634)" d="m0 0h2l2 3 4 22 4 1-6 4h-6l-10-7-5-6 12-4 1-4-5-7z" fill="#FC9B74"/>
<path transform="translate(1215,599)" d="m0 0 3 3v2l6-5 2 16 1 7v11l-7-6-8-8 1-14z" fill="#353537"/>
<path transform="translate(996,624)" d="m0 0 6 2 6 25v5l-4 2h-5l-2-4-3-17v-8l-1-3z" fill="#353537"/>
<path transform="translate(735,1180)" d="m0 0h1v12h-33l-1-9 3-1 30 1z" fill="#EA8742"/>
<path transform="translate(1211,619)" d="m0 0 4 2 13 13 1 7v11l-7-6-12-12z" fill="#353537"/>
<path transform="translate(630,1183)" d="m0 0h34v9h-33z" fill="#EA8642"/>
<path transform="translate(1451,795)" d="m0 0h16v5h-9v2h8v5h-8v2h9v6h-16z" fill="#473F3B"/>
<path transform="translate(997,605)" d="m0 0 2 2-2 11 2 4 7-1 8-5h2l-2 4-6 4-7 2-5-1-3 1 2 3-1 7-1-2-8 3 5 6-2 5-8 3h-5v-2l11-4-1-4-8-4 1-3 12-2 2-3-9-3-1-3h11l1-10z" fill="#FB625A"/>
<path transform="translate(344,847)" d="m0 0h44l-1 6h-42z" fill="#FD605C"/>
<path transform="translate(947,853)" d="m0 0 10 5 10 6-1 3-18 10h-1z" fill="#F3F4F7"/>
<path transform="translate(1445,551)" d="m0 0 5 2 4 3 1 3 5-1 3-3h2l-5 10 9-3 5-2-1 4-1 2v6l10-3v3l-10 3-3-2-1-7-2 1h-7l-2-1-2 6v8l3 5 4 3-2 1-6-4-2-4v-9l2-9-5 4-3 1h-9l-1-2 15-2-1-7-5-4z" fill="#FC605B"/>
<path transform="translate(1428,795)" d="m0 0h7l4 9 4-9h7l-3 9-5 11h-6l-6-12-2-5z" fill="#453F3F"/>
<path transform="translate(1230,534)" d="m0 0v3l-11 11-11 7-7-6-1-7 15-2 13-5z" fill="#353537"/>
<path transform="translate(1149,639)" d="m0 0 2 1v29l-1 31-2 23-3 2 1-25 1-22 1-38z" fill="#EA8643"/>
<path transform="translate(1047,654)" d="m0 0 3 1-1 3-15 11-11 9-13 11-4 2 1-4 9-8-4-6-9-11v-3l-4-1h5l10 11 5 6 5-3 18-14z" fill="#EA8643"/>
<path transform="translate(350,798)" d="m0 0 5 5 2 4 3 19v6h-2l-3-15 2 15-3-1-2-11 1 12-3-1-3-20 1-8z" fill="#FEB127"/>
<path transform="translate(378,806)" d="m0 0 9 1-2 18-2 8-8-1 1-15z" fill="#0076F9"/>
<path transform="translate(363,807)" d="m0 0h9v25h-9z" fill="#01A568"/>
<path transform="translate(516,599)" d="m0 0 9 1 7 5 3 7 3 2-3 1-1 7-6 7-5 2h-9l-6-4-4-5-1-2v-10l-9-2v-3l8 2 3 1 2-4 6-4zm0 2-6 3-4 5-1 2v8l3 5 5 4 2 1h7l6-3 4-5 1-8-4-8-7-4z" fill="#F3F4F7"/>
<path transform="translate(674,992)" d="m0 0h10l3 1 3 6 2 15 2 29v7h-3l-2-25-2-20-2-8-1-1h-18v-3z" fill="#575759"/>
<path transform="translate(489,652)" d="m0 0 5 2 15 8 12 4v8l-2 2-13-7-9-7-8-8z" fill="#373637"/>
<path transform="translate(1381,796)" d="m0 0 7 1 4 4v6l-4 5-5 1-6-3-1-2v-7z" fill="#FC685D"/>
<path transform="translate(1199,717)" d="m0 0 7 6 34 34v5l-7-6-35-35z" fill="#575759"/>
<path transform="translate(471,633)" d="m0 0h2l5 5 7 1v3l-5 2v2l-5-1-4 7-4-1-3-6 2-8z" fill="#35363A"/>
<path transform="translate(678,419)" d="m0 0h3l14 19 8 11 9-3 18-8 2 1v2l-27 12-4-1-16-21-7-10z" fill="#524946"/>
<path transform="translate(1197,732)" d="m0 0 4 2 36 36-1 4h-2l-7-8-30-30z" fill="#575759"/>
<path transform="translate(518,633)" d="m0 0 8 1 16 3-2 5-6 4-9-1-5-4-2-5z" fill="#F3F4F7"/>
<path transform="translate(1402,795)" d="m0 0h7v14h9v5l-1 1h-14l-1-1z" fill="#55443A"/>
<path transform="translate(1201,703)" d="m0 0 4 2 33 33v5l-7-6-23-23-5-4-3-5z" fill="#575759"/>
<path transform="translate(939,808)" d="m0 0h9l6 4 2 2v3h-26l2-4 5-4z" fill="#FC6E61"/>
<path transform="translate(1195,746)" d="m0 0 7 6 29 29v3l-4-1-32-32z" fill="#575759"/>
<path transform="translate(1749,822)" d="m0 0h2l-2 4-10 8-14 12-21 21-9 11-4 2 2-4 9-10 7-8 17-17 11-9 8-7z" fill="#353537"/>
<path transform="translate(1193,760)" d="m0 0 7 6 23 23v2h2v4l-4-2-4-3v-2l-4-2-2-4-4-2-7-8-5-4-2-3z" fill="#575759"/>
<path transform="translate(1213,503)" d="m0 0 2 2-3 6-4 3-9 1-7-6v-3z" fill="#F3F4F7"/>
<path transform="translate(1203,688)" d="m0 0 7 6 26 26 1 6-7-6-28-28z" fill="#575759"/>
<path transform="translate(940,792)" d="m0 0h7l3 3 1 5-3 5-7 1-5-5v-5z" fill="#FC6A5B"/>
<path transform="translate(1462,595)" d="m0 0h10l-1 6-5 10h-10l3-9z" fill="#FEB027"/>
<path transform="translate(461,577)" d="m0 0h1l-1 9-1 6v13l3 14 2 4v3l-4-1-4-11-1-5v-20l3-9z" fill="#F7A230"/>
<path transform="translate(1208,467)" d="m0 0h8l8 4 1 5-3 2h-8l-8-5 1-5z" fill="#353537"/>
<path transform="translate(1431,594)" d="m0 0 3 1 6 8 10 6h3l6-14 3 1-5 13-1 2 9-1 1 3h-15l-9-4-8-7-3-5z" fill="#EA8642"/>
<path transform="translate(1663,815)" d="m0 0 3 1 5 13 4 17 1 9v33l-2 1-1-34-3-18-5-16z" fill="#353537"/>
<path transform="translate(1205,673)" d="m0 0 7 6 21 21 2 1v6l-7-6-24-24z" fill="#565658"/>
<path transform="translate(1177,486)" d="m0 0 2 1-1 5h7l3 2v3l-9 2-1 11-4-4-1-2v-13z" fill="#FB6359"/>
<path transform="translate(1015,854)" d="m0 0h5l1 1v20l-1 1h-5l-1-1v-20z" fill="#F3F4F7"/>
<path transform="translate(386,832)" d="m0 0h4v6l-1 1h-46v-3h46v-3z" fill="#AD6B3F"/>
<path transform="translate(1751,857)" d="m0 0h4v2l-17 6-23 12-16 11-6 5-2-1 10-9 17-11 16-8 11-5z" fill="#353537"/>
<path transform="translate(1420,795)" d="m0 0h6l1 1v18l-1 1h-6z" fill="#544339"/>
<path transform="translate(1207,659)" d="m0 0 7 6 17 17 2 1v6l-7-6-20-20z" fill="#575759"/>
<path transform="translate(1e3 854)" d="m0 0h5l1 1v21h-6z" fill="#F3F4F7"/>
<path transform="translate(1091,694)" d="m0 0h3l7 14v3l-3-1-3-6-3 17h-3z" fill="#EA8643"/>
<path transform="translate(1208,644)" d="m0 0 4 2 19 19v5l-7-6-16-16z" fill="#575759"/>
<path transform="translate(1516,529)" d="m0 0 7 1 2 3-1 6-3 2-6-1-2-2v-6z" fill="#FC6D5D"/>
<path transform="translate(551,646)" d="m0 0 4 2 2 9-3 7-4 4-2 1h-9l-4-2v-3l4 1h8l5-5 1-6-1-3-2-1z" fill="#FDAF28"/>
<path transform="translate(864,528)" d="m0 0 6 2 6 4-1 3-9 5-3-1v-12z" fill="#54443C"/>
<path transform="translate(550,650)" d="m0 0 3 1 1 7-4 6-3 2h-8l-1-2 5-3h2l2-5z" fill="#F3F4F7"/>
<path transform="translate(1205,794)" d="m0 0 14 12-2 6-2 3h-2l-8-19z" fill="#353537"/>
<path transform="translate(1536,529)" d="m0 0 5 1 2 2v6l-4 3-5-1-2-3v-5z" fill="#007AEF"/>
<path transform="translate(853,528)" d="m0 0h2v14l-5-2-7-4 1-3z" fill="#3E3B3D"/>
<path transform="translate(351,879)" d="m0 0h32l-1 3h-33z" fill="#FD605C"/>
<path transform="translate(1210,629)" d="m0 0 7 6 12 12v5l-7-6-12-12z" fill="#575759"/>
<path transform="translate(1215,599)" d="m0 0 3 3v2l6-5 1 4v12l-7-6-4-4v-5z" fill="#515153"/>
<path transform="translate(551,607)" d="m0 0m-3 1h3v2l-6 4-2 4v10l5 6 9 3v2l-10-2-6-6-1-17z" fill="#F3F4F7"/>
<path transform="translate(556,626)" d="m0 0 3 1 1 8-1 1h-5l-7-4v-4l8-1z" fill="#FC6758"/>
<path transform="translate(508,619)" d="m0 0 9 1 5 3v3l-2 1-10-1-3-3z" fill="#FC615B"/>
<path transform="translate(376,810)" d="m0 0h1l-1 15-1 7h7v1h-19v-1h9v-14z" fill="#F59E32"/>
<path transform="translate(1551,529)" d="m0 0 6 2 4-2v4 4 3l-6-1-4 1v-3-4z" fill="#56473F"/>
<path transform="translate(348,877)" d="m0 0h37l-1 5-2-1 1-2-32 1-3 2z" fill="#E48243"/>
<path transform="translate(1202,786)" d="m0 0 7 6 11 11-1 3-4-2-9-9-2-1z" fill="#565658"/>
<path transform="translate(1e3 631)" d="m0 0 5 4 3 6v7l-3 4-3-9z" fill="#F9735D"/>
<path transform="translate(1215,492)" d="m0 0h9l4 2-1 3-2 1h-11l-2-1 1-4z" fill="#FD605C"/>
<path transform="translate(1381,645)" d="m0 0 3 1 1 6 3 4v3l-4-2-2-3-4 9-2-3 4-13z" fill="#EA8643"/>
<path transform="translate(730,438)" d="m0 0 2 1v2l-25 11-1-2 3-3z" fill="#5F4E46"/>
<path transform="translate(537,614)" d="m0 0h2l2 8v5l-7-1-2-1 3-10z" fill="#F7975D"/>
<path transform="translate(347,869)" d="m0 0h35v2l-32 1-3 2z" fill="#E48144"/>
<path transform="translate(496,547)" d="m0 0h9l2 2-21 5-4-1 3-3z" fill="#F59F32"/>
<path transform="translate(1212,615)" d="m0 0 4 2 11 11v5l-7-6-8-8z" fill="#575759"/>
<path transform="translate(471,629)" d="m0 0 2 4-6 4-2 8 3 6-1 3-4-5-1-2v-8l4-6 5-2z" fill="#F49C34"/>
<path transform="translate(476,828)" d="m0 0 10 2 7 1 1 2-16 5-4 1 1-3 8-3-4-2-3-1z" fill="#FC615B"/>
<path transform="translate(475,644)" d="m0 0 4 2 1 1v6l-8 1-1-3z" fill="#F3F4F7"/>
<path transform="translate(555,609)" d="m0 0 7 1-1 8-2 6-3-1 1-10z" fill="#444243"/>
<path transform="translate(546,600)" d="m0 0 6 2 5 5h-9l-4-2v-4z" fill="#373739"/>
<path transform="translate(476,615)" d="m0 0 4 1 4 5 2 4v9h-2l-1-9h-7l3-3h2z" fill="#363638"/>
<path transform="translate(1665,921)" d="m0 0 2 1-6 16-3 2-1-2 6-16z" fill="#5F4C42"/>
<path transform="translate(368,809)" d="m0 0h2l1 9v11l-1 2 2 1h-4z" fill="#017C54"/>
<path transform="translate(1450,852)" d="m0 0h8l1 1v7h-4v-4h-5z" fill="#F3F4F7"/>
<path transform="translate(1436,852)" d="m0 0h8v4l-5 1v3h-4v-7z" fill="#F3F4F7"/>
<path transform="translate(367,797)" d="m0 0 3 4 2 6h-9l3-9z" fill="#EB915C"/>
<path transform="translate(1201,475)" d="m0 0 1 2-7 16 6 3v1h-6l-3-3 2-6 6-12z" fill="#363638"/>
<path transform="translate(1254,494)" d="m0 0v3l-4 4 4 1v2l-7-2-2 8h-2l1-6 6-8z" fill="#38383A"/>
<path transform="translate(1455,868)" d="m0 0h4v8h-9v-3h5z" fill="#F3F4F7"/>
<path transform="translate(995,800)" d="m0 0h3l1 2v6l-2 3h-2l-1-2v-8z" fill="#F3F4F7"/>
<path transform="translate(520,597)" d="m0 0h11l1 3-1 2-6-1-7-2z" fill="#433C3A"/>
<path transform="translate(557,638)" d="m0 0 2 2-4 7h-3l-1-3 2-5z" fill="#F97054"/>
<path transform="translate(1435,868)" d="m0 0h3l1 4 5 1v3h-9z" fill="#F3F4F7"/>
<path transform="translate(350,798)" d="m0 0 5 5 1 4h-8l1-8z" fill="#EE9664"/>
<path transform="translate(702,1233)" d="m0 0h5v3l-5 2h-5l1-4z" fill="#F3F4F7"/>
<path transform="translate(484,642)" d="m0 0h2l-1 7-4 3v-5l-2-1 3-3z" fill="#F9976D"/>
<path transform="translate(710,1236)" d="m0 0h5v3l-5 2-5-1 1-3z" fill="#F3F4F7"/>
<path transform="translate(1212,823)" d="m0 0 4 1 1 3-2 3-5-1v-5z" fill="#EA8643"/>
<path transform="translate(1020,658)" d="m0 0 5 2-1 4-5 1-1-5z" fill="#EA8643"/>
<path transform="translate(537,614)" d="m0 0h2l2 8v5l-7-1-1-2 6 1-2-9z" fill="#424042"/>
<path transform="translate(523,610)" d="m0 0 3 3-2 6h-3l-1-4z" fill="#353537"/>
<path transform="translate(1749,822)" d="m0 0h2l-2 4-10 8h-3l9-9z" fill="#33363C"/>
<path transform="translate(547,616)" d="m0 0 4 1-1 6-4 1v-7z" fill="#353537"/>
<path transform="translate(477,630)" d="m0 0 6 2 4 4-1 4v-2l-4-2-5-4z" fill="#FEB127"/>
<path transform="translate(1210,481)" d="m0 0 3 2v5l-3 2-2-2v-5z" fill="#353537"/>
<path transform="translate(1185,481)" d="m0 0 3 1v7h-4v-7z" fill="#353537"/>
<path transform="translate(1639,780)" d="m0 0h1l1 19-2-1-1-4z" fill="#018C5C"/>
<path transform="translate(1593,869)" d="m0 0h1l1 8v9l-2-3-1-2z" fill="#018D5C"/>
<path transform="translate(575,806)" d="m0 0 1 4-2 8-3-3 2-8z" fill="#F28F55"/>
<path transform="translate(381,801)" d="m0 0 4 1 1 4h-7z" fill="#FE9D72"/>
<path transform="translate(1210,516)" d="m0 0 1 3-5 2-6-1v-2z" fill="#FD605C"/>
</svg>
