<?xml version="1.0" encoding="UTF-8"?>
<svg version="1.1" viewBox="0 0 2000 1333" width="2000" height="1333" xmlns="http://www.w3.org/2000/svg">
<path transform="translate(0)" d="m0 0h2e3v1333h-2e3z" fill="#ECEEF1"/>
<path transform="translate(983,191)" d="m0 0h22l13 4 13 8 7 6 9 13 5 13 1 9h459l10 4 8 6 4 5 4 10 1 440-22 12-4 5h-2l-2 5-6 14-2 2-2 5h-1l-1-14v-445l-2-5-4-2-440-1 2 32v22l13 1 8 3 6 9 13 34 18 49 11 26 7 14 7 1 16-3 18-6 21-10 18-10 11-6 5 12 8 10 11 7 3 3-10 9-17 13-13 9-13 8-10 6-19 8-13 4-10 2h-24l-16-5-10-6 1 10 6 25 7 19 2 5 1 8 5 22 4 22 8 32 6 29v3h256v62l-2 2h-245l1 2 1 17h342l-2 9-10 24-7 20-5 15-2 7-4 15-1 5v28l3 11 6 11 1 3-15 2-10 4-8 6-6 8-2 5v15l5 12 7 10 9 10 9 9 13 10 19 13 25 14 4 2h4l-1 6-15 40-11 29h-2l-1 6-7-6-6-6v-2h-2v-2h-2l-8-10-14-18-7-11-12-19-12-22-10-19-12-26-8-23-5-22-2-15v-33l3-24 2-5 9-15 10-14 8-9-4-1h-728l-1-1v-45l1-1h252l-1-2v-17h-251l-2-2-3-21-4-17-10-24h270l2-28 4-28 2-11 3-31h-5l1-7 5-28 3-1h12l3-3-5-6 10-1 3-3-1-3-9-3v-1l10-2 3-2-2-4-7-3v-2l7-2 1-5-10-3-9-2h-6l-1-1-2-14-11-25-12-29-7-20-4-1-11 13-14 19-14 18-6 8v3l14 11 8 6v2l-6 5-7 15-1 5-1 14 5 1 3 1-2 6-2 4-5-2-14-8-18-12-17-13-13-12-6-9-2-7v-13l4-13 7-12 14-17 12-14 10-11 9-11 11-12 7-8 12-14 12-13 9-6 10-7 13-5 7-2 1-1v-51l-384 1-4 3-1 233h10l11 4 6 4 9 4 10 7 6 7 6 9 7 16 5 15 4 14 5 25 2 17-6 3v8l1 4 2 37 1 8 2 48 1 16v55l-1 1-1 8-1 20-4 19-4 11-6 10-9 9h-2l-2 4-11 8-24 12-19 7-10 2h-92l-3 1-17-1-24-3-5-1v23l-3 56-3 29-10 62-5 28-1 3-3 1-51 4h-8l-1-3-1-50v-35l1-57-11 22-8 14-13 20-12 21-13 24-12 23-11 20-9-3-49-21-1-2 16-39 11-26 15-35 11-25 13-29 13-28 18-37 12-22 7-11h196l-1-24-17 1-26 9h-12l-6-2-7-4h-9l-21 7h-2l-6-20-6-23-7-23-3-11-2-7v-7l19-13 13-10 7-6 3-9 3-19v-4l-17-9-1-1 1-13 9-69 1-24 4-9 3-4h2v-2l17-10 11-6 11-9h2l2 24 4 19 5 13 7 8 8 2 9-3 8-9 5-11 5-14 5-23 3-21v-56l1-3v-14l-1-3v-176l4-10 7-8 8-5 8-2h399l1-11 4-12 7-11 4-5 10-7 12-5z" fill="#363437"/>
<path transform="translate(1051,285)" d="m0 0h440l5 3 2 5v447l1 11 2-5 10-20h2l2-4 9-6 12-6 8-1 10-2-1-6 3-5 7-4 13-2h10l7 1 1 36 2 43 6 92 65 1-3-25-10-94-5-42-1-4 1-1h12l7 4 5 10 13 5 7 6 13 19 8 11 19 29 12 19 14 24 8 16 6 13 4 11 2 12v12l-1 12 9 12 9-3 17-5h21l9 3 8 6 7 8 3 9v8l-3 12-7 13-10 13-13 14-4 3 3 12 14 49 5 24 2 15v32l-3 17-6 16-6 11-8 11-10 10-16 11-15 8-27 9-25 5-28 3h-60l-31-2-26-3-26-5-21-6-19-7-17-8-13-8-16-11-14-12-15-15-11-14-11-15-9-15-13-24-11-25-10-27-7-22v-4l-4 4-8 10-9 8-17 9-19 9-9 7-4 2-2 4-2 3-1 8h28l4 4 1 6-2 5-2 2h-5l3 25 21 21 13 18 9 17 4 13 1 7v8l-2 9-2 5h-2l-2 4-6 5-10 5-16 4-18 2h-48l-22-3-15-5-8-5-7-7-4-11v-15l5-17 8-15 7-11 9-10 7-8 8-8h2v-2h2l2-16 2-10h-6l-4-3-1-7 3-6 2-1 22-1-8-3h-21l-24 5-8 1h-10l-12-2-17-6-13-7 5-5 11-7 17-8 15-4 7-1h14l21 4-13-10-22-14-9-7-11-11-11-15-12-21-9-20v-3h10l25 5 18 6 16 8 13 9 13 13 11 18 8 18 6 21 1 5 8-15 11-12 5-5 8-6 16-8 19-5 10-1-3-23v-27l3-21 7-24 8-18h2l-3 24v33l3 21 5 20 8 21 7 16 10 19 7 14 12 21 13 20 10 14 8 10 6 7v2h2v2h2l7 8 5 5 2-5h2l3-10 11-30 12-32v-2l-5-1-24-13-22-15-10-8-10-9-10-10-9-13-5-12v-15l5-10 7-7 9-5 6-2 15-1-8-14-3-11v-28l4-17 2-9 4-10 4-12 11-29 5-12 1-5-341-1-2-19 245-1 1-1 1-62h-256l-8-36-8-32-5-28-4-17-1-6-6-15-5-17-3-14-1-4v-7l16 8 11 3h24l17-4 21-8 21-12 15-10 17-13 13-11-4-3-11-8-8-11-4-9-21 12-15 8-16 7-18 6-14 2-7-2-12-25-14-37-11-30-13-33-4-6-8-3-13-2-2-33z" fill="#363437"/>
<path transform="translate(555,285)" d="m0 0h384l1 16v35l-4 3-14 4-10 6-9 6-8 7-10 11-9 11-12 13-9 11-11 12-7 8-12 14-12 15-7 12-4 13v13l3 9 8 10 11 10 19 14 19 12 14 8 2-6 2-4-5-1-3-1v-14l3-10 6-11 4-4h2l-5-5-12-9-6-5 1-4 29-38 10-13 6-7 5 2 10 28 14 32 6 14 2 14 11 1 12 4 3 3-2 4-7 1v2l7 2 3 3-2 4-9 3 7 3 1 3-4 4-9 1 5 6-4 3h-14l-5 28-2 7h5l-1 17-2 21-4 23-3 32-1 5-269 1 8 19 3 9 4 17 2 16 1 1 251 1 1 19-252 1v33l-3 33-4 37-3 16-5 12-9 11-10 8-16 8-13 4h-2l3 18 8 63 11 83 12 91 2 15-1 8-4 3h-7l-5-5-5-36-11-84v-4l-185 1-3 19-13 98-2 8-4 3h-7l-5-5 1-14 21-156 14-105 3-6 7-4h92l13-3 19-7 17-9 8-5 8-6 3-3h2l2-4 3-4h2l2-5 6-12 4-18 1-5 1-20 1-8 1-1v-55l-2-37-1-27-1-8-2-37-1-8 1-5 5-2-3-21-5-25-6-20-7-17-10-16-8-7-14-7-8-5-9-3-10-1v-233z" fill="#FCFCFC"/>
<path transform="translate(1051,285)" d="m0 0h440l5 3 2 5v459l-2 10-8 17h-345l-2-19 245-1 1-1 1-62h-256l-8-36-8-32-5-28-4-17-1-6-6-15-5-17-3-14-1-4v-7l16 8 11 3h24l17-4 21-8 21-12 15-10 17-13 13-11-4-3-11-8-8-11-4-9-21 12-15 8-16 7-18 6-14 2-7-2-12-25-14-37-11-30-13-33-4-6-8-3-13-2-2-33z" fill="#FCFCFC"/>
<path transform="translate(510,515)" d="m0 0 1 2 11 2 10 2h18l14 2 12 6 4 3 9 4 8 6 7 9 6 10 8 20 6 21 5 25 2 17-6 3v8l1 4 2 37 1 8 2 48 1 16v55l-1 1-1 8-1 20-4 19-4 11-6 10-9 9h-2l-2 4-11 8-24 12-19 7-10 2h-92l-3 1-17-1-24-3-5-1v23l-3 56-3 29-10 62-5 28-1 3-3 1-51 4h-8l-1-3-1-50v-35l1-57-11 22-8 14-13 20-12 21-13 24-12 23-11 20-9-3-49-21-1-2 16-39 11-26 15-35 11-25 13-29 13-28 18-37 12-22 7-11h196l-1-24-17 1-26 9h-12l-6-2-7-4h-9l-21 7h-2l-6-20-6-23-7-23-3-11-2-7v-7l19-13 13-10 7-6 3-9 3-19v-4l-17-9-1-1 1-13 9-69 1-24 4-9 3-4h2v-2l17-10 11-6 11-9h2l2 24 4 19 5 13 7 8 8 2 9-3 8-9 5-11 5-14 5-23z" fill="#FC605C"/>
<path transform="translate(504,252)" d="m0 0h13l-1 4-5 9-1 4v176l1 3v14l-1 3v56l-4 26-5 21-7 18-6 9-7 6-9 2-7-3-7-8-6-16-3-16-1-9v-15l-13 10-22 12-4 3h-2v2h-2l-2 4-4 9-1 24-10 77v5l17 9 1 5-3 19-4 10-13 11-17 12-8 5v7l4 14 7 25 6 21 6 22v2l19-7 4-1h9l8 5 5 1h12l26-9 18-1v25h-108l-7-27-8-28-12-43-15-53-4-5-3-2h-91l-5 1v2h-2v2h-2l-4-16-3-13-2-16v-5h-42l-7-6-1-3v-59l5-6 5-2 42 1 1-11 3-16 2-7 12-36 1-2-62 1-16-1-3-4-4-9-25-1v-17h53v-109h50 3 23l2 1 14-3 10-1 3 2-1-4h2l1-2h2v-3h2l2-5h2v-2h2l3-6h2l2-4 5-4 5-6 8-7 3-1v-2l6-4h2v-2l15-10 10-7 16-9 17-8 19-8 15-5h4v-2l27-7 29-5z" fill="#D1D5E6"/>
<path transform="translate(1320,121)" d="m0 0h47l21 3 17 4 21 6 14 6 16 7 19 11 13 8v2l5 2 8 6 14 11 1 3 4 2 7 6 5 5 4 5 8 8v2h2v2h2l11 14 13 18 7 10 8 14 5 9 9 17 5 12 8 20 6 19 4 17 4 19 3 29v3l3 1 11 16 6 10 7 12 8 20 6 16 5 19 5 27 2 19-5-2-6-5-17-5h-20l-8 3-12 7-9 10-7 12-6 17-3 14h3l5-20 8-17 7-9 8-7 12-6h8l17 4 13 7 11 9 7 8 6 10 3 9 2 17v6l-9-4v-8l-10-2-12-6-10-8-10-13-1-2-6 12-5 5-6 4-13 2-4 8-1 4v10l11 1 4 2v7l5 10 6 4 10 1 7-3 7-7 2-9 2 1v11l5 5 6 5 6 2 11-2 3-1-2 6-7 13-8 8-10 6-8 3h-13l-1 9-1 3 2 10 9 80 7 68v5h-65l-1-1-4-60-3-50-2-54 1-7h-17l-13 2-5 3h-2l-2 5v6l-13 4h-3l-1-442-4-10-6-7-11-6-4-1-375-1 5-8h2l2-4 11-13 7-8 4-5h2v-2h2l2-4h2l2-4 4-4h2l2-4 4-4h2l2-4 12-10h2v-2l11-8h2v-2l7-4 9-6 6-3h2v-2l25-11 30-8z" fill="#D1D6E6"/>
<path transform="translate(1051,285)" d="m0 0h440l5 3 2 5v459l-2 10-8 17h-345l-2-19 245-1 1-1 1-62h-256l-2-8v-4h258l-1-320-3-9-8-4-298-1-4-6-8-3-13-2-2-33z" fill="#D1D5E5"/>
<path transform="translate(397,930)" d="m0 0 11 1 34 4-4 5-2 10-32 240-3 21v7l1 3 3 1h7l4-4 8-58 8-61 2-5h185l3 20 12 91 2 13 4 4h7l3-2 1-8-1-12 38 2 32 3 29 4 13 4 3 3-4 4-5 2-24 4-39 4-69 4-55 2-49 1h-189l-52-1-73-3-49-3-40-4-23-4-9-4v-4l2-2 19-4 31-4 40-3-15-7-43-19-54-24-1-4 3-6 9-6 7-2 9-1h9l8 7h3l-2-6 4 2 7 5 2-2v-2l-3-1v-2l4 1 6 5h3l1-3-3-1v-2l5 2 4 3h3l-2-6 5 2 4 3 4 1-2-4-2-1v-3l4-1 6 5 4 1-3-5-1-3 8-3 7-1 5-10 24 10 26 11h2l8-15 8-16 17-32 14-24 9-14 8-13 15-29 2-2-1 59v35l1 53 44-4 18-1 2-14 11-66 4-30 3-45z" fill="#D0D6E7"/>
<path transform="translate(983,191)" d="m0 0h22l13 4 13 8 7 6 9 13 5 13 1 9h459l10 4 8 6 4 5 4 10 1 440-22 12-4 5h-2l-2 5-6 14-2 2-2 5h-1l-1-14v-445l-2-5-4-2-440-1 2 32v21h-13l-5-1h-15l-2 3-1-14-16-5-15-8-4-5 2-1 16 5 18 2 9-1 4 2h9l6-4 3-5v-9l-3-5 2-5 1-3v-14l-2-4-2-1-2-14-7-3-7-1-1-5 1-1h7l6 3-1-8-4 1h-10l-2-8-1 9-29 1-2-9-2 8-6 1h-2v12l3 9v14l-3 11-2-3-6-11-7-6-2-1h-7l-4 5-1 6 2 9 4 6-1 4-4 5v11l3 5 5 3 9 1-2 9-4 8-2-4-11 2-10 3h-3l-1-36v-16l-384 1-4 3-1 232-1 1h-17l-21-5-2-4v-48l1-3v-14l-1-3v-176l4-10 7-8 8-5 8-2h399l1-11 4-12 7-11 4-5 10-7 12-5z" fill="#353437"/>
<path transform="translate(993,227)" d="m0 0h1l1 12 4-1h25v-11l2 2 1 8 14-1 2 9-7-3h-7v4l11 2 4 3 1 5v9l3 1 2 4v14l-3 6 2 4 1 3v9l-3 5-5 4-2 1h-9l-6-2-9 1-16-2-17-5 5 5 16 8 13 4 1 1 1 11 1-1h15l31 4 8 3 6 9 13 34 18 49 11 26 7 14 7 1 16-3 18-6 21-10 18-10 11-6 5 12 8 10 11 7 3 3-10 9-17 13-13 9-13 8-10 6-19 8-13 4-10 2h-24l-16-5-10-6 1 10 6 25 7 19 2 5v3h-34l-20-4-10-1-16 6-19 5-25 5-29 4h-17l1-7 5-28 3-1h12l3-3-5-6 10-1 3-3-1-3-9-3v-1l10-2 3-2-2-4-7-3v-2l7-2 1-5-10-3-9-2h-6l-1-1-2-14-11-25-12-29-7-20-4-1-11 13-14 19-14 18-6 8v3l14 11 8 6v2l-6 5-7 15-1 5-1 14 5 1 3 1-2 6-2 4-5-2-14-8-18-12-17-13-13-12-6-9-2-7v-13l4-13 7-12 14-17 12-14 10-11 9-11 11-12 7-8 12-14 12-13 9-6 10-7 13-5 14-4 17-4 4 2 4-8 2-6h-9l-6-4-3-5v-11l5-6-1-4-4-8-1-7 2-7 4-4h7l6 4 6 7 4 8 2-3 1-5v-14l-3-9v-9l1-3 6-1h2z" fill="#01B470"/>
<path transform="translate(1576,690)" d="m0 0h10l7 1 1 36 2 43 6 92 65 1-3-25-10-94-5-42-1-4 1-1h12l7 4 5 10 13 5 7 6 13 19 8 11 19 29 12 19 14 24 8 16 6 13 4 11 2 12v12l-1 12 9 12-3 3-20 12-4 1v2h-4l-1 13-5 47-2 8-2 2-44 1h-144l-5-3-10-19-4-8 1-7 4-4h12l-3-3-40-7-20-6-9-4-8-4-10-8-4-4-7-13-2-9v-28l4-17 2-9 4-10 4-12 11-29 5-12 2-6h3l1-5 7-14 1-8 2-1 2-5 10-20h2l2-4 9-6 12-6 8-1 10-2-1-6 3-5 7-4z" fill="#353337"/>
<path transform="translate(1139,929)" d="m0 0h13v96l58-3 22-1 4-1-4-2v-2l-4-1-3-3 5 1 18 12 10 8-2 1-20-4h-14l-16 3-15 6-15 8-8 6 4 3 18 8 11 3 8 1h10l18-3 14-3h21l9 4v1l-23 1-3 3-1 7 2 4 8 2-1 10-3 16h-2v2l-5 4-7 7h-535l-1-20 1-18 5-13h2l2-5 5-5 9-6 7-3 5-1h170v-104l1-1 107-9 80-6z" fill="#FCFCFC"/>
<path transform="translate(612,759)" d="m0 0 2 1-2 4-8 10-12 13-14 14-14 11-8 6-2 2 22-2 3-2 3-7 5-4 3-1h12l6 3 4 5 2 7 9 1 6 2 1-3 1-13h1v17l-1 1-1 8-1 20-4 19-4 11-6 10-9 9h-2l-2 4-11 8-24 12-19 7-10 2h-92l-3 1-17-1-24-3-5-1v23l-3 56-3 29-10 62-5 28-1 3-3 1-51 4h-8l-1-3-1-50v-35l1-57-11 22-8 14-13 20-12 21-13 24-12 23-11 20-9-3-49-21-1-2 16-39 11-26 15-35 11-25 13-29 13-28 18-37 12-22 7-11h196l-1-24-12-1 3-2 5-2 51-5 13-2 11-7 12-9 9-7 22-22 11-14z" fill="#353437"/>
<path transform="translate(624,654)" d="m0 0 4 1 10 9 9 10 9 13 4 7v2l3 1 8 19 3 9 4 17 2 16 1 1 251 1 1 19-252 1v33l-3 33-4 37-3 16-5 12-9 11-10 8-16 8-13 4h-2l3 18 8 63 11 83 12 91 2 15-1 8-4 3h-7l-5-5-5-36-11-84v-4l-185 1-3 19-13 98-2 8-4 3h-7l-5-5 1-14 21-156 14-105 3-6 7-4h92l13-3 19-7 17-9 8-5 8-6 3-3h2l2-4 3-4h2l2-5 6-12 4-18 1-5 1-20 1-8 1-1v-55l-2-37-1-27-1-8-2-37z" fill="#0174F7"/>
<path transform="translate(679,825)" d="m0 0h735l-2 4-7 8-14 21-9 16-8 20-2 7h-701l1-11 4-32 2-26z" fill="#FCFCFC"/>
<path transform="translate(555,285)" d="m0 0h384l1 16v35l-4 3-14 4-10 6-5 1-239 1-6 4-3 4-1 3-1 322 276-1v8l-1 5h-272l-7-12-9-12-11-12-8-6-1-7 6-3-3-21-5-25-6-20-7-17-10-16-8-7-14-7-8-5-9-3-10-1v-233z" fill="#D0D6E7"/>
<path transform="translate(670,899)" d="m0 0 1 2h700l-2 11-3 21v27l2 17v6l-23 5-13 5-12 7-6 5h-2l-2 4-7 7-7 11-4 9-2-1-5-19-5-14-8-16-9-14-12-12-15-10-21-9-23-6-22-3 9 21 10 18 8 12 9 11 10 10 11 7-1 2 6 3v2l4 1 2 2-12 1-50 3h-24v-96l-40 3-36 3-150 12-9 1-1 57-31-6-49-12-23-6-18-6-59-1-57-2-47-4h-11l-2 1-3-23v-4l20-7 11-6 11-9 8-11z" fill="#D1D6E7"/>
<path transform="translate(1813,904)" d="m0 0h21l9 3 8 6 7 8 3 9v8l-3 12-7 13-10 13-13 14-5 5-13 11-17 12-15 10-20 12 8 16 9 20 14 31 9 20 7 16 3 4 3 9-1 5-4 2h-9l-14-7-8-7-5-1-1-6-7-2v-5l-7-1-3-6h-5l-1-1v-5h-7l-3-5-6 1-3-5-10-5-3-3-24-7-2 2h-8l-6-3-7-2-19-3-12-2-9 1-7 3-5 2h-6l-5-5h-1l-11 5-21 8h-3l-2 4-10 6-1 4-3 1-4-1-3 6-7 1-1 5-5-1-2 7-5 2-3 6-4 1-3 7-5 2-9 8-10 6-10 1-6-3 1-6 11-30 2-8h2l3-10 11-30 12-32v-2l-5-1-24-13-22-15-10-8-10-9-10-10-9-13-5-12v-15l5-10 7-7 9-5 6-2 17-1 10 8 12 6 17 6 25 5 23 4 3 2v2l-12 1-3 3-1 7 8 16 6 11 4 2h150l38-1 2-3 3-24 4-37 1-5h4v-2l5-3 21-12 19-7z" fill="#01B470"/>
<path transform="translate(1372 1e3)" d="m0 0h2l9 29 11 29 14 30 12 21 8 12 8 11 9 11 9 10 11 11 14 11 12 8 10 6 15 8 21 8 20 6 24 5 21 3 23 2 19 1h60l28-3 25-5 27-9 15-8 2 1-1 1 3 1 32 3 25 4 10 3 1 5-10 4-24 4-40 4-71 4-62 2-48 1h-192l-53-1-60-2-67-4-36-3-27-4-11-3-4-3 2-4 13-4 21-3h8l1-2v2l5-1 7 8 8 5 15 5 22 3h48l18-2 16-4 12-6 6-7h2l1-5 2-9v-8l-3-14-5-12-8-14-13-17-19-19-2-15v-10l6-2 2-5-1-6-3-3-28-1v-8l5-7 10-8 19-10 17-8 10-8 8-9z" fill="#ECEEF1"/>
<path transform="translate(418,645)" d="m0 0 8 4 5 7 1 3 1 29 4 13 12 18 1 9-4 10-7 8-3 2v11l2 36v2l10-5 26-12 17-9 20-12 10-7 5-3h2v-2l12-9 4-2 2-4 4-4h2v-2h12l15 2 5 1-1-2-18-3-1-2 6-2v-2l-6 2-5 3-4-1 5-10 3-14v-35l14-4 26-7 9-3 13-3v9l1 4 2 37 1 8 2 48 1 16v37l-1 14-2 3-15-3-5-10-4-3-3-1h-12l-6 3-3 4-1 6-4 1-24 2 4-4 17-13 13-12 13-13 9-11 5-6-1-2-12 14-7 8-14 14h-2l-1 3-10 8-18 13-4 2-21 3-43 4-5 2 8 1v1l-16 1-26 9h-12l-6-2-7-4h-9l-21 7h-2l-6-20-6-23-7-23-3-11-2-7v-7l19-13 13-10 7-6 3-9 3-19v-5l6 2 18 7-2-9-6-29-4-16z" fill="#FC9D79"/>
<path transform="translate(1576,690)" d="m0 0h10l7 1 1 36 2 43 6 94h-28l-4-1-2 6-1 2-6 50-3 31-1 6-27-5-17-3-20-6-9-4-8-4-10-8-4-4-7-13-2-9v-28l4-17 2-9 4-10 4-12 11-29 5-12 2-6h3l1-5 7-14 1-8 2-1 2-5 10-20h2l2-4 9-6 12-6 8-1 10-2-1-6 3-5 7-4z" fill="#0175F8"/>
<path transform="translate(620,965)" d="m0 0 2 2h10l47 4 57 2 59 1 25 8 36 9 29 7 25 5 6 2v47l-170 1-10 3-10 6-4 2-2 5-2 3h-2l-1 4-3 9-1 18-1 1-65 4h-7l-2-9-15-115-1-8z" fill="#ECEFF2"/>
<path transform="translate(1051,285)" d="m0 0h440l5 3 2 6-1 45h-444l-2-33z" fill="#FBFBFB"/>
<path transform="translate(555,285)" d="m0 0h384l1 16v35l-4 3h-386v-50z" fill="#FBFBFB"/>
<path transform="translate(452,952)" d="m0 0h148l2 10 14 106v9h-180v-8z" fill="#ECEFF2"/>
<path transform="translate(434,1094)" d="m0 0h185l3 20 10 75v11l-44-2-27-1-140-2v-13l11-83z" fill="#ECEEF1"/>
<path transform="translate(856,547)" d="m0 0 11 6v92l-3 5-3 2h-173l-5-3-2-2v-95l4-4z" fill="#D0D6E7"/>
<path transform="translate(1282,1056)" d="m0 0 10 10 3 1-1-5h2l1 3 2-2v4h28l4 4 1 6-2 5-2 2h-5l3 25 21 21 13 18 9 17 4 13 1 7v8l-2 9-2 5h-2l-2 4-6 5-10 5-16 4-18 2h-48l-22-3-15-5-8-5-7-7-4-11v-15l5-17 8-15 7-11 9-10 7-8 8-8h2v-2h2l2-16 2-10h-6l-4-3-1-7 3-6 2-1 24-1 2 1z" fill="#FC615C"/>
<path transform="translate(1179,374)" d="m0 0h176l4 4 1 2v93l-5 5h-114l5-6-10-6-7-6-7-11-3-7-21 12-15 8-9 3v-86z" fill="#D0D6E7"/>
<path transform="translate(237,698)" d="m0 0h91l7 6 6 19 14 50 9 32 10 37 3 10v5h-88v2l-8-1-9-1-8-7-5-16-4-16-8-30-2-7v-5h-2l-4-18-7-26-4-15-1-2v-8l3-5h2v-2z" fill="#FCFCFC"/>
<path transform="translate(1602,1088)" d="m0 0 7 7 9-1 5-3 7-2 12 1 16 3 15 2 4 3 3 1h8l3-3v2l10 2 13 4 8 6 6 3 2 4 6-1 3 5 7 1 1 5h5l2 2 1 4 7 2 1 5 4 1 2 1 1 6h5l8 7 4 4-5 1-16 8-15 6-23 6-24 4-12 1h-48l-28-3-17-3-23-6-26-10-17-9-12-8-4-1 5-2 2-5 4-2 2-2 2-5h5l1-4 7-1 1-5 4-2 5 1 1-5 10-6 2-3 34-13z" fill="#353437"/>
<path transform="translate(1458,927)" d="m0 0h8l10 8 12 6 17 6 25 5 23 4 3 2v2l-12 1-3 3-1 7 8 16 6 11 4 2v2l6 2 20 12 12 6 19 10 10 5 2-1-19-10-30-16-13-8v-1h136l-5 5-38 24-20 12-16 9-13 6h-4l-2-8-8 1-3 2-1 6v5l-7 3-4-1-5-3-20-11-19-10-6-2h-8l-4 8-4 1-19-10-16-10-14-10-9-7-10-9-10-10-9-13-5-12v-15l5-10 7-7 9-5 6-2z" fill="#01B470"/>
<path transform="translate(696,1104)" d="m0 0h14l1 1v18l530-1 4 2-12 14-6 10h-326l-93-2-104-4-39-2-22-2v7h-1l-4-33v-4l20-2z" fill="#D1D6E7"/>
<path transform="translate(1499,1194)" d="m0 0 8 1 16 8 30 10 22 5 27 4 23 2 19 1h60l28-3 25-5 27-9 15-8 2 1-1 1 3 1 32 3 25 4 10 3 1 5-10 4-24 4-40 4-71 4-62 2-48 1h-192l-53-1-60-2-67-4-36-3-27-4-11-3-4-3 2-4 13-4 21-3h8l1-2v2l5-1 7 8 8 5 15 5 22 3h48l18-2 16-4 12-6 6-7h2l1-5 2-5 10-1z" fill="#D1D6E6"/>
<path transform="translate(1649,697)" d="m0 0h12l7 4 5 10 13 5 7 6 13 19 8 11 19 29 12 19 14 24 8 16 6 13 4 11 2 12v12l-1 12 9 12-3 3-20 12-4 1v2h-5l3-30 1-4 2-21-1-10-78-1h-15l-3-26-10-94-5-42-1-4z" fill="#0175F7"/>
<path transform="translate(183,367)" d="m0 0h50 3 23l2 6v103l114 1-1 16h-25l-2 6-3 7-7 1-10-1-4-12-142-1-3 11-1 2h-16l-6-12-25-1v-17h53z" fill="#383638"/>
<path transform="translate(1170,932)" d="m0 0h10l25 5 18 6 16 8 13 9 13 13 11 18 8 18 6 21 1 5 8-15 11-12 5-5 8-6 16-8 19-5 12-2h12l1 3-8 15-1 3-4 4-8 10-9 8-17 9-19 9-9 7-4 2-2 4-3 7-1 5-2-3v-3h-2l1 5-4-1-7-7v3 5l-12-4h-21l-24 5-8 1h-10l-12-2-17-6-13-7 5-5 11-7 17-8 15-4 7-1h14l21 4-13-10-22-14-9-7-11-11-11-15-12-21-9-20z" fill="#01B270"/>
<path transform="translate(312,989)" d="m0 0h1l-1 59v35l1 53 8-1h9l-1 12-11 8-1 2 6 3v2l-4 1-9-1-1 2 5 2v4l-9-1-4-1v2l5 2-1 3-8-1-5-1v2l5 1-1 4-12-1 4 2v3h-7l-7-2-1 1 4 1v4l-9-1-5-1-10 5-10 7-27 2h-19l1-5 5-15 4-14 3-13 1-2v-7l-2-4 6-11 5 1 10 4h2l8-15 8-16 17-32 14-24 9-14 8-13 15-29z" fill="#ECEEF1"/>
<path transform="translate(1711,324)" d="m0 0h14l16 4 11 6 8 6 8 10 6 12 3 11v18l-3 11-7 14-5 6h-2v2l-11 8-11 5-14 3h-10l-12-2-14-6-10-8-8-9-8-16-2-10v-12l3-14 7-14 9-10 11-8 12-5z" fill="#FBFCFC"/>
<path transform="translate(400,359)" d="m0 0 6 1 5 5 3 7 2 4 18-5 13-2h15l10 3 8 6 4 6v3l5-2h8l4 4-1 10 5 8v9l-8 24-7 8-1 5 2 19 7 3 1 6-5-2-4-2v12l-5 13-8 13-9 11-9 8-5-1-3-3-1-11h-13l-8-5-7-7-7-14-2-7v-11l6-4 13-2 6-1 10-4 19-1 5-2 2-5 3-7-1-21-4-2-5-6v-7l-7-2h-11l-20 9-4 1h-11l-4-3-3 8v8l1 11-3-3-2-9-11-3-10-5-7-8 1-7 5-4h5l-7-16v-12l3-2h6l9 6 2 1-2-11v-8z" fill="#373437"/>
<path transform="translate(179,578)" d="m0 0h106l7 4 3 6 1 45 9 24v5l-4 2-28-10-97-1-6-5-1-3v-59l5-6z" fill="#0175F8"/>
<path transform="translate(397,930)" d="m0 0 11 1 34 4-4 5-2 10-32 240-1 6-25-1-5-33-2-10-4-3v-9l1-8 7-1 2-14 11-66 4-30 3-45z" fill="#ECEEF2"/>
<path transform="translate(1648,700)" d="m0 0 2 2 9 79 8 77v5h-65l-1-1-4-60-3-50-1-25v-25l7 6 15 9 11 3h9l7-2 4-4z" fill="#FBFBFC"/>
<path transform="translate(993,227)" d="m0 0h1l1 12 4-1h25v-11l2 2 1 8 14-1 2 9-7-3h-7v4l11 2 4 3 1 5v9l3 1 2 4v14l-3 6 2 4 1 3v9l-3 5-5 4-2 1h-9l-6-2-9 1-16-2-17-5 5 5 16 8 13 4 1 1 1 14 6 25 5 31 1 11-6-4-13-12-11-10-7-8-10-11-11-15-7-11 1-4 5-13h-9l-6-4-3-5v-11l5-6-1-4-4-8-1-7 2-7 4-4h7l6 4 6 7 4 8 2-3 1-5v-14l-3-9v-9l1-3 6-1h2z" fill="#FB9B74"/>
<path transform="translate(1835,737)" d="m0 0h15l14 4 11 7 7 7 6 10 4 11 1 7v9l-3 13-5 10-9 10-8 6-12 5-4 1h-19l-10-3-8-4-8 1-10 2h-6l3-9 4-8-1-6-4-11-1-5v-14l4-14 7-11 7-7 11-7 9-3z" fill="#FC635D"/>
<path transform="translate(1620,553)" d="m0 0h3v2l-8 5-10 12-7 14-5 16-2 10h3l5-20 8-17 7-9 8-7 12-6h8l17 4 13 7 11 9 7 8 6 10 3 9 2 17v6l-9-4v-8l-10-2-12-6-10-8-10-13-1-2-6 12-5 5-6 4-13 2-4 8-1 4v10l3 12v17l-2 5-2-1-1-7-1-1-2 6 3-1-2 4-4 3-8-9v-2l-3 2 6 8 2 4h-2v10l-2 6h-6l-10-6v-2h-2l-7-10-5-11-4-14v-25l4-16 5-12 5-5 7-9 10-9 12-6z" fill="#383537"/>
<path transform="translate(1522,1038)" d="m0 0h8l12 5 17 9 16 9 5 3 4 1 7-2 6 16 6 12-11 5-21 8h-3l-2 4-10 6-1 4-3 1-4-1-3 6-7 1-1 5-5-1-2 7-5 2-3 6-4 1-3 7-5 2-9 8-10 6-10 1-6-3 1-6 11-30 2-8h2l3-10 11-30 12-32 4-11z" fill="#FCB017"/>
<path transform="translate(357,1132)" d="m0 0h11v17l5 5 4 27 2 15v14l-2 6h-139l-1-1v-9l3-6 8-7 12-7 5-1 12 3v-4l-5-1 3-2 6 2 7 1-1-3-4-2v-1l13 1 1-3-5-1v-2l13 1v-2l-4-2v-2l8 1 5 1v-4l-5-1v-3l1-1 13 1-3-3-4-2 5-5 5-4 2-1 1-11 4-2z" fill="#FCB017"/>
<path transform="translate(1822,995)" d="m0 0h2l12 41 7 26 2 10v8l-6 17-8 16-10 14-2 3h-2l-2 4-10 10-7-14-7-16-13-29-11-24-9-20-2-2 14-7 19-12 19-14 10-8z" fill="#363437"/>
<path transform="translate(180,1113)" d="m0 0 36 15-6 13 2 3v7l-3 9-3 13-5 16-5 13-4 4-6-1-17-8-25-11-61-27-18-8-1-4 3-6 9-6 7-2 9-1h9l8 7h3l-2-6 4 2 7 5 2-2v-2l-3-1v-2l4 1 6 5h3l1-3-3-1v-2l5 2 4 3h3l-2-6 5 2 4 3 4 1-2-4-2-1v-3l4-1 6 5 4 1-3-5-1-3 8-3 7-1z" fill="#FCB017"/>
<path transform="translate(1372 1e3)" d="m0 0h2l9 29 11 29 14 30 7 12v3l-49-2-5-1v19l-1 1h-21l-14-14-2-15v-10l6-2 2-5-1-6-3-3-28-1v-8l5-7 10-8 19-10 17-8 10-8 8-9z" fill="#ECEEF1"/>
<path transform="translate(1755,1040)" d="m0 0 4 1 13 28 5 11 8 18 9 20 11 25 3 4 3 9-1 5-4 2h-9l-14-7-8-7-5-1-1-6-7-2v-5l-7-1-3-6h-5l-1-1v-5h-7l-3-5-6 1-3-5-10-5-3-3-23-7 2-5 5-11 4-17 5-3 16-7 28-13z" fill="#FCB017"/>
<path transform="translate(418,645)" d="m0 0 8 4 5 7 1 3 1 29 4 13 12 18 1 9-4 10-7 8-3 2v11l1 16v7l-1-2-4 1-1 3-7 4-10 7-14 8-11 7h-2l-1 2-6 4h-2l-1 4-7-25-10-35v-7l19-13 13-10 7-6 3-9 3-19v-5l6 2 18 7-2-9-6-29-4-16z" fill="#FC9D77"/>
<path transform="translate(1709,311)" d="m0 0h19l16 4 16 8 13 12 7 9 7 14 3 12 1 16-3 17-6 14-9 12-8 8-10 7-17 7-11 2h-16l-15-3-9-4-12-7-12-11-9-14-4-9-3-13v-20l4-16 7-13 7-9 7-7 11-7 10-5zm2 13-15 4-11 6-12 11-7 11-4 10-2 11v12l3 12 7 14 11 12 11 7 14 5 8 1h10l14-3 14-7 8-6v-2h2l6-8 7-14 2-9v-18l-4-14-7-12-6-7-11-8-11-5-13-3z" fill="#01B470"/>
<path transform="translate(625,659)" d="m0 0h1l2 37 1 8 2 48 1 16v37l-1 14-2 3-15-3-5-10-4-3-3-1h-12l-6 3-3 4-1 6-4 1-24 2 4-4 17-13 13-12 13-13 9-11 5-6-1-2-12 14-7 8-14 14h-2l-1 3-10 8-18 13-4 2-21 3-33 3h-6l4-3 15-6 8-4 23-11 15-8 20-13 13-10h2v-2l5-4 2-3h2v-2h2v-2h2l3-6h2l2-4 9-17 6-18 3-15 2-22z" fill="#FC605B"/>
<path transform="translate(1614,626)" d="m0 0h11l4 2v7l5 10 6 4 10 1 7-3 7-7 2-9 2 1v11l5 5 6 5 6 2 11-2 3-1-2 6-7 13-8 8-10 6-8 3h-13l-1 9-1 1-2 16-5 5-7 2h-9l-13-4-14-9-5-4v-2h-2v-4h2l2-10 4-13 1-10h2l-8-10-1-3 4-1 6 8 3 2 4-5h-2l1-6 2-1 2 9 2-4v-17z" fill="#FB9C74"/>
<path transform="translate(1692,723)" d="m0 0 5 5 13 18 23 35 12 19 14 24 8 16 6 13 4 11 2 12v12l-1 12 9 12-3 3-20 12-4 1v2h-5l3-30 1-4 2-21-1-10-73-1v-5l1 3 18-1 7-19 6-13 4-16v-13l-5-17-8-16-13-22-3-9z" fill="#0657D0"/>
<path transform="translate(525,624)" d="m0 0 9 1 7 6 5 22 7 16 6 11 5 9v9l-4 16-4 8 4-1 5-3h5v2l-5 3 18 3 1 3-10-1-22-2v2l-7 6-5 5-10 8h-2v2l-5 3-11-2-6-4-6-8-1-8 2-8 4-7 9-10 5-8 1-4v-8l-4-13-4-9-2-8v-8l3-11 5-8 4-3z" fill="#FD605C"/>
<path transform="translate(1051,300)" d="m0 0 1 4h332l2 3v9l-4 3h-329l-1-2z" fill="#D0DDEA"/>
<path transform="translate(679,760)" d="m0 0h253l1 19h-254z" fill="#D0D6E7"/>
<path transform="translate(939,301)" d="m0 0h1v18h-304l-4-4 1-9 2-2h304z" fill="#D0DDEA"/>
<path transform="translate(910,426)" d="m0 0 5 2 10 28 14 32 5 12v2h-3l-2 5-4 16h-7l-12-5-7-1-20-8-5-5-14-11-6-5 1-4 29-38 10-13z" fill="#FBFBFC"/>
<path transform="translate(941,502)" d="m0 0h4l2 14 11 1 12 4 3 3-2 4-7 1v2l7 2 3 3-2 4-9 3 7 3 1 3-4 4-9 1 5 6-4 3h-15v-2h-13l-21-3-8-3-25-7-5-2v-14l3-10 6-11 6-5 6 4 18 7 8 1 9 4 7 1 1-8 3-10z" fill="#FB9D72"/>
<path transform="translate(280,364)" d="m0 0h5l2 2 2 15 2 11 7 40 3 21 3 19-2 2-5 1 77 1v1h-113l-1-3v-104l1-2 14-3z" fill="#FCB019"/>
<path transform="translate(1282,1056)" d="m0 0 10 10 3 1-1-5h2l1 3 2-2v4h28l4 4 1 6-2 5-2 2h-5l3 25 12 12-1 2-89-1v-2l8-8h2v-2h2l2-16 2-10h-6l-4-3-1-7 3-6 2-1 24-1 2 1z" fill="#FC615B"/>
<path transform="translate(490,477)" d="m0 0 5 2 4 2 6 25 1 6v9l-4 26-6 24-4 9-6 12-7 6-7 1-6-3-6-9-4-11-3-16-2-26 1-2 7 1 11-10 10-14 8-16z" fill="#FB615C"/>
<path transform="translate(1620,553)" d="m0 0h3v2l-8 5-10 12-7 14-5 16-2 10 9-1 7 3 2 2 3 12v20l-3 8 3-1-2 4-4 3-8-9v-2l-3 2 6 8 2 4h-2v10l-2 6h-6l-10-6v-2h-2l-7-10-5-11-4-14v-25l4-16 5-12 5-5 7-9 10-9 12-6z" fill="#02B170"/>
<path transform="translate(449,410)" d="m0 0h11l7 3 1 7 6 7 3 3 1 19-6 12-5 3-19 1-12 5-14 1-8 4-1 8-4-2-3-8v-12l2-4h2l-2-9-1-3-1-19 3-9 5 3h11l11-4z" fill="#FB9B75"/>
<path transform="translate(1270,380)" d="m0 0 5 1-1 5-4 9-6 12 8 1 2 2v6l-2 5 8 4-1 6-1 4 6 3 2 2v5l-6 5-7 2-6 8h-2l-2 4-9 6-8 2-10-6-7-6-7-11-2-6-1-7v-16l2-7 3-3 9-1 9 2 6-7 9-12 5-5z" fill="#FC9D76"/>
<path transform="translate(969,290)" d="m0 0 7 1 6 7 1 2v9l5 4 16 8 13 4 1 1 1 14 6 25 5 31 1 11-6-4-13-12-11-10-7-8-10-11-11-15-7-11 1-4 5-13h-9l-6-4-3-5v-11l6-7h3v2l-5 5-1 9 4 6 4 2h6v-16l4-3v-2l-6-3z" fill="#FC9D76"/>
<path transform="translate(1660,808)" d="m0 0 2 2 5 48v5h-65l-1-1-2-30v-22l1 3 8-1 20-1h12l20 1z" fill="#FBFBFC"/>
<path transform="translate(438,1077)" d="m0 0h177l2 1 2 16h-186l2-14z" fill="#0A56C9"/>
<path transform="translate(208,367)" d="m0 0h25l2 2 1 107-3 1h-24l-1-1z" fill="#FA625A"/>
<path transform="translate(424,551)" d="m0 0 4 2 3 4 5 23 6 12 10 7 6 3v6l-6 10-7 6-10 5-3 1h-15l-6-3-11-30h-2v-21l4-9 3-4h2v-2z" fill="#FC605C"/>
<path transform="translate(236,367)" d="m0 0h23l2 6v101l-2 4h-22l-2-3v-107z" fill="#0176F9"/>
<path transform="translate(183,367)" d="m0 0h25v110h-24l-1-1z" fill="#01B571"/>
<path transform="translate(426,551)" d="m0 0 4 1 4 8 4 20 5 10 9 7 7 3 1 2-1 9-6 8-9 8-12 5h-14l-5-1 3 9v3l7 2 8 7 3 7 1 29 4 13 9 13 3 6v12l-5 9-9 9h-2l2-4 5-4 4-5 3-9-1-9-10-15-4-8-2-8-1-29-4-8-8-5-1 1 7 28 4 23v2l-11-3-11-5-10-4-9-5-1-1 1-13 9-69 2-8h1l4 13 8 22 5 2h15l10-4 9-7 6-10v-6l-10-5-6-5-6-12-5-23z" fill="#B32E3C"/>
<path transform="translate(1563 1e3)" d="m0 0h139l5 1-3 3-27 18-26 16-21 12-22 11 2 9 8 15 1 3 8-1 49-14 24-8 2-1v7l-5 16-5 9h-2l-2 4h-8l-6-3-7-2-19-3-12-2-9 1-7 3-5 2h-6l-5-5-5-6-7-16-2-13 2-5 7-3 4 1 2 5v3l13-5 12-7 12-6 40-25 18-12h-134l27 15 25 13 9 5 1 2-3 1-16-8-19-10-23-13-9-5v-1z" fill="#098067"/>
<path transform="translate(1361,1103)" d="m0 0 28 1 20 1 2-1v2l5-1 11 18 9 12 4 6h-3l-5-2-49 3-23 1-4 1-12-16-4-5 20-1z" fill="#D1D5E6"/>
<path transform="translate(1657,771)" d="m0 0h1l3 29v8l-1 4h-32l-28 1-1 6h-1l-2-35v-8l8-2 12-1h32l8 1z" fill="#D0D6E7"/>
<path transform="translate(1589,521)" d="m0 0h17l10 5 7 8 4 10v6l-15 3-13 5-10 7-7 7-6 9-5-1-6-5-5-9-1-4v-10l4-11 4-6 7-7 12-6z" fill="#373437"/>
<path transform="translate(1310,1051)" d="m0 0 21 2 10 5 2-1 2 4 2 1v2l4 2 6 10 3 7 1 5v34l-1 1h-21l-14-14-2-15v-10l6-2 2-5-1-6-3-3-28-1v-8l5-4h2v-2z" fill="#FCFCFC"/>
<path transform="translate(414,192)" d="m0 0h14l7 3 6 5v2h2l4 10 1 5-1 9-5 10-6 4-1 2-9 3h-10l-9-3-9-8-4-10v-12l4-9 2-3h2l1-3 7-4z" fill="#D1D6E7"/>
<path transform="translate(1617,154)" d="m0 0h7l11 4 5 4 4 5 3 7v13l-5 11h-2v2h-2v2l-10 5h-15l-10-5-4-4-4-8-1-4v-11l4-10h2l2-4 8-5z" fill="#D1D6E7"/>
<path transform="translate(1399,844)" d="m0 0 1 4-3 8-4 14-3 18-1 8v30l2 15 4 18 7 21 7 17 8 16 15 29 12 20 8 12 9 13 8 10 7 8 9 10 5 5-2 8-7-6-6-6v-2h-2v-2h-2l-8-10-14-18-7-11-12-19-12-22-10-19-12-26-8-23-5-22-2-15v-33l3-24 2-5 9-15z" fill="#504F50"/>
<path transform="translate(1519,1145)" d="m0 0 5 2 13 8 15 8 24 9 14 4 13 3 29 4 12 1h48l26-3 23-5 21-7 17-8 6-3 6 1 1 3-10 6-16 8-24 8-22 5-28 3h-48l-36-4-29-7-19-6-15-7-19-10-10-7 1-5z" fill="#504F50"/>
<path transform="translate(616,822)" d="m0 0 3 1 1 8v9l-2 16-4 16-8 15-8 10-10 9-12 7-15 5-19 3-14 1h-56l-54-5-10-1h-13l-5 2-2 8-3 31-5 71-4 39-5 32-3 10h9v3l-7 1-50 3h-7v17h-1v-21l48-3 4-1 4-18 4-26 5-56 5-72 3-17 4-6 2-1h25l28 3 23 2 19 1h34l27-2 18-4 13-5 13-9 7-7 6-9 5-10 5-20 1-8v-21z" fill="#504F50"/>
<path transform="translate(372,1161)" d="m0 0 2 1 5 34v14l-2 6h-139l-1-1v-9l3-6 3 1h-2l-1 5-1 2h118l-1-5v-14l3-10 7-11 5-4z" fill="#E48644"/>
<path transform="translate(962,331)" d="m0 0 3 1v4h2l7 11 9 12 12 14 9 10 8 7 8 8 8 7-2 1-26-7-17-5-2-1 1-5 5-12-21 2-9-11-21-28 4-3 10-2z" fill="#088168"/>
<path transform="translate(69,1139)" d="m0 0 4 1-4 1v3l6 2 28 12 17 8 15 6 28 13 12 5h2l2-8 3-7 6-8 9-7 12-5-1 11-4 14-6 17-3 6-3 3-6-1-17-8-25-11-61-27-18-8-1-4 3-6z" fill="#E68843"/>
<path transform="translate(1595,651)" d="m0 0h3l6 8 4 3v2l5 2 8 5 10 4 14 3v4l-15-2-16-7-3-1v2l8 9 10 7 15 8 4 2v8l-2 8-6 4-5 1h-9l-13-4-14-9-5-4v-2h-2v-4h2l2-10 4-13 1-10h2l-8-10-1-3z" fill="#FC9D76"/>
<path transform="translate(315,947)" d="m0 0h1v7l-4 10-10 22-10 19-5 11h-2l-1 5-8 13-24 38-8 16-10 19-2 7 9 4-8 16-3 1-56-24-1-2 6-15 3-1 12 5 19 8 11 5 4 1 1-5 13-26 11-19 12-19 10-16 5-9 11-20 11-23 8-17z" fill="#383537"/>
<path transform="translate(480,738)" d="m0 0 8 1 5 3 3 5v6l-6 9-3 5-1 6 2 1-16 8-28 13-6 2-1-2-1-27 2 1 7-3 6-4 5-6 8-10 7-5z" fill="#FC5F5B"/>
<path transform="translate(1179,550)" d="m0 0h177l4 4-1 5-2 1h-179l-4-3 1-5z" fill="#D1D6E7"/>
<path transform="translate(887,506)" d="m0 0 6 4 18 7 8 1 3 2-2 5-1 3 3 3 1 3v8l-4 6-4 1 1 8-1 1-8-1-9-3-23-7-3-1v-14l3-10 6-11z" fill="#FC9D76"/>
<path transform="translate(1178,588)" d="m0 0h180l2 2v5l-2 2h-182l-2-2 1-5z" fill="#D1D6E7"/>
<path transform="translate(1648,700)" d="m0 0 2 2 3 26v6h-2l-2 5-7 6-6 2h-13l-15-5-9-5-5-4-1-6v-25l7 6 15 9 11 3h9l7-2 4-4z" fill="#FAFAFB"/>
<path transform="translate(1648,579)" d="m0 0 3 3 7 9 2 4 4 2 9 7 12 5 7 1-3 1 2 7-10 2-5 3-3 1-2 4-7-2-3-5-1-3-4-2-5-2-10 1-6 3-5 6-17-1v-8l4-10 2-3 13-2 8-5 5-8z" fill="#FB9C72"/>
<path transform="translate(1192,512)" d="m0 0 166 1 2 2-1 6-1 1h-180v-2z" fill="#D1D6E7"/>
<path transform="translate(1029,836)" d="m0 0h8l7 2 8 7 3 6 1 10-3 9-5 5-6 4-4 1h-9l-9-4-6-7-2-5v-11l5-10 9-6z" fill="#D1D6E7"/>
<path transform="translate(1225,1012)" d="m0 0 5 1 18 12 10 8-2 1-20-4h-14l-16 3-15 6-15 8-9 7-1-2-3 1-11-1v-27l58-3 22-1 4-1-4-2v-2l-4-1z" fill="#EBEEF2"/>
<path transform="translate(811,707)" d="m0 0h12l6 3 6 5 4 11-1 8-4 8-6 5-4 2-9 1-9-3-4-3v-2h-2l-4-8v-11l5-10z" fill="#FC665C"/>
<path transform="translate(1647,392)" d="m0 0h1l4 16 7 13 8 10 11 9 10 6 16 5 7 1h16l14-3 14-6 11-8 8-8 9-14 5-14 1-5h1v11l-4 14-8 14-11 12-8 6-6 4-13 5-8 2h-26l-14-4-14-7-8-6v-2l-4-2-2-4-3-1-8-14-4-10-2-9z" fill="#D0D6E7"/>
<path transform="translate(684,424)" d="m0 0h153l2 2-8 9-5-1h-142l-3-2v-6z" fill="#D1D6E7"/>
<path transform="translate(1270,380)" d="m0 0 5 1-1 5-4 9-6 12 8 1 2 2v6l-2 5 8 4-1 6-1 4 6 3 2 2v5l-6 5-8 1-11-2-1-5 6-5h2v-3h-14l-1-4 7-4 1-2-4 1h-8v-6l-4-7v-2h-2l2-4 7-9 5-7 5-5z" fill="#FD9E74"/>
<path transform="translate(208,367)" d="m0 0h25l2 2v21l-26-1v61h26l1 26-3 1h-24l-1-1z" fill="#504F51"/>
<path transform="translate(236,367)" d="m0 0h23l2 6-1 50h-1v-34h-23v61h22l1-14h1l1 23v15l-2 4h-22l-2-3v-107z" fill="#0657D1"/>
<path transform="translate(1282,1056)" d="m0 0 10 10 3 1-1-5h2l1 3 2-2v4h28l4 4 1 6-2 5-2 2h-5l-1 4v-4h-57l-1 2v-2h-6l-4-3-1-7 3-6 2-1 24-1 2 1z" fill="#FC655D"/>
<path transform="translate(620,1106)" d="m0 0h1l3 23v7l-21-1-31-4-17-4-3-2 1-5 7-3 24-4 24-3 11-1z" fill="#D0D6E7"/>
<path transform="translate(475,656)" d="m0 0 9 1 4 4v8l-6 8-7 8-1 10 6 11 1 5-2 5-2 1h-7l-10-5-4-7-1-6v-19l3-12 8-9z" fill="#FD605C"/>
<path transform="translate(1620,553)" d="m0 0h3v2l-8 5-10 12-7 14-5 16-2 9h-7l-8 2-1 3-4 4-4 10-1 8h-1v-25l4-16 5-12 5-5 7-9 10-9 12-6z" fill="#393537"/>
<path transform="translate(490,477)" d="m0 0 5 2 4 2 6 25 1 6v9l-5 5-11 6-10 4h-17l-4-1 2-4 9-8 10-14 8-16z" fill="#FC9C77"/>
<path transform="translate(1018,341)" d="m0 0 2 3 6 27 4 25 1 11-6-4-13-12-11-10-7-8-10-11-11-15-2-5 8 6 5 4 11 6 6 2h10l5-2 2-11z" fill="#F8F9FA"/>
<path transform="translate(498,574)" d="m0 0 1 2 2-1h8l5 3 2 4-1 7-9 9-2 4-1 8 1 4v8l-3 6-3 3-9 1-5-4-3-7v-21l7-6 6-10z" fill="#FC615C"/>
<path transform="translate(1510,950)" d="m0 0h10l33 6 3 2v2l-12 1-3 3-1 7 8 16 5 11-5-2-9-6-16-10-13-10-6-7-1-8 4-4z" fill="#01B370"/>
<path transform="translate(683,462)" d="m0 0h126l-4 10h-120l-4-2v-6z" fill="#D0D6E7"/>
<path transform="translate(1049,284)" d="m0 0 2 1 2 32v21h-13l-5-1h-15l-2 3-1-14-16-5-15-8-4-5 2-1 16 5 18 2 9-1 4 2h9l6-4 3-5v-9l-3-5 2-5z" fill="#3B3538"/>
<path transform="translate(1711,324)" d="m0 0h14l16 4 11 6 8 6 8 10 6 12 3 11v18h-1v-15h-2l-4-11-5-8-9-10-10-6-12-5-4-1h-22l-13 4-11 6-8 7-7 10-5 11-2 6-1 10h-1v-12l3-14 7-14 9-10 11-8 12-5z" fill="#D0D6E7"/>
<path transform="translate(802,499)" d="m0 0 2 3 4 7h-125l-2-2v-5l2-2z" fill="#D0D6E7"/>
<path transform="translate(1260,1106)" d="m0 0 1 2h61l5 2 11 11-1 2-89-1v-2l8-8h2v-2h2z" fill="#FC615C"/>
<path transform="translate(504,522)" d="m0 0h1v8l-3 17-8 6-10 4h-16l-8-3-7-6-1-2-1-12 1-2 11 3h17l13-5 9-6h2z" fill="#FC615B"/>
<path transform="translate(1485,779)" d="m0 0h3l-1 5-6 13-8 20-11 33-5 18-1 6v14l12 8v2h2v2h2l8 12 3 16-1 10-4-1-8-6-6-4-8-14-3-11v-28l4-17 2-9 4-10 4-12 11-29 5-12z" fill="#0657D1"/>
<path transform="translate(731,715)" d="m0 0h29l2 1 1 6 7-6h2v25l-9-6-2 5-1 1h-29l-2-2v-22z" fill="#FAFAFB"/>
<path transform="translate(1659,725)" d="m0 0 3 1 2 15 2-2 4 21 7 47 5 40 1 16-1 1h-15l1-3 6 1-4-38-3-21-3-27-4-33-1-8z" fill="#0172F4"/>
<path transform="translate(584,534)" d="m0 0 5 2 8 6 6 8-6 8-1 8 7 15-1 6-3 2h-7l-10-5-4-8-1-5v-14l2-14 3-6 2-2z" fill="#FC615C"/>
<path transform="translate(507,468)" d="m0 0h2l1 53-4 26-5 21-7 18-6 9-7 6-9 2-7-3-7-8-6-16-3-16-2-28 2-5 3 3 1 21 3 20 4 14 6 10 6 3 7-1 6-5 3-5 3-7 4-9 7-28 3-22v-9l-6-28v-9l5-3h2z" fill="#F5F5F8"/>
<path transform="translate(418,645)" d="m0 0 8 4 5 7 1 3 1 29 4 13 12 18 1 9-4 10-7 8-4 2-5-40v-7l-2-1-3-20-6-26-2-8z" fill="#FD605C"/>
<path transform="translate(1522,1038)" d="m0 0h8l3 2-4 1-3 5-1 9 3 2v2h-6l-3 9-6 15-6 16-6 17-4 11-8 20-3 9-3 8-1 4h5v1l-9-1-3-2 1-6 11-30 2-8h2l3-10 11-30 12-32 4-11z" fill="#E38444"/>
<path transform="translate(1755,1040)" d="m0 0 4 1 13 28 5 11 8 18 9 20 11 25 3 4 3 9-1 5-4 2h-9v-1l7-1-2-5-8-18-7-17-8-16-5-12-9-20-3-7-4-9v-2l-10 5 2-4 5-5-2-7-4-1z" fill="#E48444"/>
<path transform="translate(1020,336)" d="m0 0h15l6 2v32l-2 5-5 1 5 6-3 12-3 7-1 6-2-3-4-28-6-28-1-4v-7z" fill="#088268"/>
<path transform="translate(315,947)" d="m0 0h1v7l-4 10-10 22-10 19-5 11h-2l-1 5-8 13-24 38-8 16-10 19-2 7 9 4-1 2-8-1-50-21-3-2v-2l3-1 12 5 19 8 11 5 4 1 1-5 13-26 11-19 12-19 10-16 5-9 11-20 11-23 8-17z" fill="#504F50"/>
<path transform="translate(260,374)" d="m0 0 2 1 5 37 6 36 4 28h-17z" fill="#D1D7E7"/>
<path transform="translate(1838,759)" d="m0 0h12l8 3 5 5 2 5-1 7-3 5-7 6-2 3h-15l1-6 8-10-1-3h-6l-6 4-12-6 1-4 7-6z" fill="#FAFAFB"/>
<path transform="translate(1591,950)" d="m0 0h8l-1 7 4-1 2-6h8l-1 7h6l-1 7-6 1-2 6h6l-1 7-6 1-2 6-8 1v-7h-3l-2 6h-8v-6l-5-1 1-7h7v-6l-5-1v-6l7-2z" fill="#FBAD1D"/>
<path transform="translate(1569,124)" d="m0 0 9 1 7 6 3 5v8l-3 7-3 3h-2v2l-4 1h-10l-6-3-5-8v-10l3-6h2v-2l5-3z" fill="#D1D6E7"/>
<path transform="translate(297,440)" d="m0 0 2 2 5 30-2 2-5 1 77 1v1h-113v-1l15-1-3-21v-7l2 1v2l21-3z" fill="#F7A524"/>
<path transform="translate(1660,913)" d="m0 0 7 1 5 2v2h2l4 8v7l-4 8-5 4-3 1h-10l-6-4-4-6v-11l3-6 7-5z" fill="#504F51"/>
<path transform="translate(1589,1063)" d="m0 0h2l6 16 6 12-11 5-21 8h-2l1-26 2-6h3l2-4 10-2z" fill="#FC9C78"/>
<path transform="translate(1636,548)" d="m0 0h20l17 5 8 7v2l3 1 7 11 1 6 2 1v2l-1 3-11-13-10-8-16-8-14-3h-8l-14 7-8 8-8 14-5 12-4 17-4 1-1-2 5-20 6-14 7-10 9-10 11-6z" fill="#F9F9FA"/>
<path transform="translate(1308,638)" d="m0 0h23l1 3 5-3h11l5 4 1 5-3 6-4 4 7 1v7h-21l-1-5 11-11 1-4h-5v2l-5-1-4-2-3 9-5 12h-10l3-9 5-11h-5v4h-7z" fill="#3D3A3B"/>
<path transform="translate(1555,780)" d="m0 0h2l-1 10 2-2h3l-2 5-2 3h-2l-2 4-4 9-11 28-10 23-8 16-3 7 5 2 10 7 18 8 6 2h4l4-33 3-5h2v-8h1v9l-3 6-6 50-3 31-1 6-4-2 2-1 4-37v-11l-17-6-19-10-11-8-17-6v-2l10 1 6 2-3-4v-4h2v2h2l2 5h2l1-5h2l1-5 12-26 6-14 9-24 7-22z" fill="#0657D1"/>
<path transform="translate(1642,617)" d="m0 0h10l6 4 4 6v10l-3 5-5 4-7 2-6-1-6-4-3-4-1-10 3-6 5-5z" fill="#FC9B70"/>
<path transform="translate(1684,621)" d="m0 0h7l8 4 2 3v17l-5 5-3 2h-11l-6-4-4-7v-8l5-8z" fill="#FA9B6D"/>
<path transform="translate(289,765)" d="m0 0h11l6 4 6 7 1 3v7l-3 6-5 3h-7l-8-3-6-7-2-5v-7l3-5z" fill="#D1D6E7"/>
<path transform="translate(357,1132)" d="m0 0h11v8l-1 10-3 2-8 3-11-1-9-4-7-1 1-14 3-1z" fill="#FC9C78"/>
<path transform="translate(180,1113)" d="m0 0 36 15-6 13 2 3v7h-2l-1-7-2-2h-9l-7-3-10-9-2-2-6-2 2-1 2-6z" fill="#FC9D74"/>
<path transform="translate(496,440)" d="m0 0h8l5 3 2 5v14l-2 6h-2l-1 4-5 3h-2l-1 2v-2l-6-1-2-2-2-22 6-8z" fill="#FA9B70"/>
<path transform="translate(913,517)" d="m0 0 6 1 3 2-2 5-1 3 3 3 1 3v8l-4 6-4 1 1 8-1 1-8-1-4-9-4-5-1-2 1-9 7-6h3l2-7z" fill="#413739"/>
<path transform="translate(1039,579)" d="m0 0 5 1 3 40 1 23-3 3h-6l-2-14-4-49 1-2z" fill="#353437"/>
<path transform="translate(606,605)" d="m0 0h14l4 1 3 10 2 11v5l-1-2-7-2h-15l-6-3-3-3-1-3v-7l4-5z" fill="#FC615C"/>
<path transform="translate(1044,577)" d="m0 0h6l-3 1 1 6 3 44v16l-5 5-4 1-2-1 1 10v12h-3l-3-21-6-2v-3h5l-1-21-3-32v-8l-2-1 6-1 4 50 1 14 7-2 1-3-3-49-1-12-1-2z" fill="#504F50"/>
<path transform="translate(205,1160)" d="m0 0h2l1 6-4 14-6 17-2 2h-4l-11-6-1-6 5-12 8-9 8-5z" fill="#FCAF19"/>
<path transform="translate(1265,1084)" d="m0 0h57v8l-59 6v-9z" fill="#B22C3C"/>
<path transform="translate(280,364)" d="m0 0h5l2 2 2 15v9l-2-3-22 3 1 2v8l-2-2-3-23-1-5 1-2 14-3z" fill="#E88B46"/>
<path transform="translate(1651,613)" d="m0 0 6 3 5 5 3 5 6 1 5-5 5-3 2 1 1 2-7 4-4 7v8l3 5v2l6 3 9 1 2 3h-8l-1 3v-3l-6-2-7-6v-2l-4-2v-11l-3 9-5 6-5 3-8 1-8-2-6-5-4-9v-7l-3-1-11-1-1-3 7-1 10 1 6-7 5-2zm-9 4-5 3-5 6-1 5 2 10 6 5 5 2 8-1 6-4 3-3 1-3v-10l-4-6-6-4z" fill="#EFEBED"/>
<path transform="translate(373,1162)" d="m0 0h1l4 26-1 20-5 1-11-1-2-6v-13l3-10 4-6 5-5h2z" fill="#FCB018"/>
<path transform="translate(1647,392)" d="m0 0h1l4 16 7 13 8 10 11 9 10 6 16 5 7 1h16l14-3 14-6 11-8 8-8 9-14 5-14 1-5h1v11l-4 14-8 14-4 5-4 1-4-1-2 3-3 1-3 3-4 1-1 2-3-1-1 3-4-1v2l-11 3-8 1h-15l-10-1-7-2-16-8-5 1-1-4-2-4-5-1v-3l-1-3-4-1-3-6-3-3-4-10v-3h-2l-1-4z" fill="#D0DDEA"/>
<path transform="translate(366,231)" d="m0 0 10 1 5 5 1 2v11l-4 5-3 2h-12l-5-4-2-4v-11l4-5z" fill="#D1D6E7"/>
<path transform="translate(225,576)" d="m0 0h48l17 1 4 3 3-4 1 4-1 9 2 1-1 2v39l6 18 1 1v6l3 1v8l-3 2-11-4-12-3-3-2-7-2-95-2v-1h96l28 10 3-1-1-8-8-21-1-45-3-6-6-3-64-1z" fill="#D0DEEB"/>
<path transform="translate(625,659)" d="m0 0h1l2 37 1 8 1 35h-18l1-6 6-18 3-15 2-22z" fill="#EF6358"/>
<path transform="translate(1576,614)" d="m0 0h4l2 8v18l-2 10-4 9h-2l-4-4-4-13v-12l4-10 5-5z" fill="#01B270"/>
<path transform="translate(1022,685)" d="m0 0h3l1 5-15 122h-4l1-16 6-52 3-22 4-34z" fill="#504F51"/>
<path transform="translate(1845,1078)" d="m0 0h1l2 15v5l-3 3-8 16-9 13-12 13-5 5-3 1-2-4 1-4 9-9 1-2h2l2-4 11-16 8-18z" fill="#514F50"/>
<path transform="translate(631,823)" d="m0 0h1v12l-2 21-3 16-3 8-8 13-9 10h-2l-1 3-10 7-15 9-14 6-24 8-99 1 1-3 5-1h90l13-3 19-7 17-9 8-5 8-6 3-3h2l2-4 3-4h2l2-5 6-12 4-18 1-5 1-20 1-8z" fill="#0557D1"/>
<path transform="translate(1024,760)" d="m0 0h24l3 9 2 10h-30v-12z" fill="#D1D5E6"/>
<path transform="translate(973,538)" d="m0 0 15 5 19 4-3 13-12-1-21-6-2-2 1-4-7-3-3-2 10-2z" fill="#0A7F67"/>
<path transform="translate(1584,719)" d="m0 0 3 1 2 80 3 52v10h8v-9h1l1 11h-28l1-3 14 1-2-24-3-73z" fill="#0656D0"/>
<path transform="translate(1664,727)" d="m0 0h3l3 12 8 49 6 45 3 30h-4l-3-25-7-53-7-42-2-10z" fill="#EBF0F5"/>
<path transform="translate(452,952)" d="m0 0h148l1 2v8l-1 1-13-1-20-3-23-5-91-1-1 2z" fill="#D0DEEB"/>
<path transform="translate(434,780)" d="m0 0h2l1 2v15l-4 3-9 4-24 4-11 2 4-4 16-9 14-9 5-4 3-1z" fill="#D0D6E7"/>
<path transform="translate(1576,727)" d="m0 0h3v17l-2 32-3 87h-4v-15l2-64 3-49z" fill="#E2EAF1"/>
<path transform="translate(693,708)" d="m0 0h6l3 2v27l-3 2-1 3h9l1 5-3 1h-18l-3-1 1-4 1-1h9v-3l-4-2-1-1v-24z" fill="#F7F9FA"/>
<path transform="translate(1679,1075)" d="m0 0h5l-3 10-6 9h-17l-16-3-5-2 3-2 16-5 20-6z" fill="#01B370"/>
<path transform="translate(1043,566)" d="m0 0 4 1 12 7 15 5 16 3v1h-16l-20-4-10-1-16 6-19 5-11 2-4-1 24-8 15-8z" fill="#F4F6F8"/>
<path transform="translate(525,622)" d="m0 0 9 1 6 4 3 4 5 22 7 16 7 12 2 3v5l-3-4-9-16-7-16-5-22-6-5-9-1-6 3-5 8-3 11v8l4 13 5 12 1 5v8l-3 8-9 10-6 8-2 5-1 9 2 7 6 7 8 3 7 1-2 2-9-1-9-6v-2h-2l-3-7v-12l4-9 8-10 5-6 3-7v-9l-9-25v-17l4-11 5-6z" fill="#B22C3C"/>
<path transform="translate(964,596)" d="m0 0h7l-6 11-9 9-8 4-6 1-1 2 1-18 1-7z" fill="#363537"/>
<path transform="translate(1047,687)" d="m0 0 3 1 4 29 5 27 10 40 8 24v4l-4-1-9-29-6-22-6-28-5-32-1-12z" fill="#504F51"/>
<path transform="translate(184,459)" d="m0 0h24v18h-24l-1-1v-16z" fill="#01B170"/>
<path transform="translate(1659,725)" d="m0 0 3 1 3 26 3 22 3 26 7 61 4 1 1-4v5l-1 1h-15l1-3 6 1-4-38-3-21-3-27-4-33-1-8z" fill="#0657D1"/>
<path transform="translate(922,521)" d="m0 0 12 2-2 1-1 17v11l1 8h5v1l-14-1-8-2v-9l5-3 2-4v-8l-3-5-1-2z" fill="#FC9D72"/>
<path transform="translate(1080,374)" d="m0 0h3l2 10 4 18 5 16 5 12 8 21v11l-4 12-5 8h-2l-2 4-4 1 2-5 7-10 3-8v-14l-12-30-6-19-3-13z" fill="#078369"/>
<path transform="translate(1252,1117)" d="m0 0h82l4 4-1 2-89-1v-2z" fill="#B22C3C"/>
<path transform="translate(1711,324)" d="m0 0h14l16 4 11 6 8 6 8 10 6 12 3 11v18h-1v-15h-2l-3-11-3-9-4-6-3-5-7-5-4-4-5-1-1-3-6-1-3-2-8-2h-14l-1 3-3-1v-2l-13 4-5 3-4 3h-2l-1 3-3 2h-3l-5 10h-3l-1 7-1 2h-2l-2 6-3 22h-1v-12l3-14 7-14 9-10 11-8 12-5z" fill="#D0DEEB"/>
<path transform="translate(771,362)" d="m0 0h19l1 6h-12v3h10v6h-10v3h12v7h-20l-1-22z" fill="#453C3A"/>
<path transform="translate(1702,1070)" d="m0 0 1 2 3 1 4 8 2 7 1 12 1 4-7-1-16-5 2-5 5-11 3-11z" fill="#FB9C6F"/>
<path transform="translate(1242,411)" d="m0 0 3 1 5 10-1 5 12-1-1 3-6 3v3l14 1v3l-6 4-1 5 11 2 1 2-8 1-8-3-1-5 4-6-8-1-4-4-5 5-4 6v8l2 6-4-2-2-4v-8l6-10 4-4h2v-2l-2 1h-10l-9-5v-2l6 1 9 3 3-1 1-6-3-6z" fill="#E87F47"/>
<path transform="translate(159,1125)" d="m0 0h2l1 5 2 2v3l-5-1-5-4h-4v3l4 2v3l-5-1-8-5 3 4-1 3-4-1-8-5 3 3-1 4-4-1-6-5-3-1 4 5-3 3-11-8 3 4-1 3-4-1-7-6-9-1 1-2h9l6 3 2-4 2 1 15 1h3l6-1 4 1 2-3h2l1-2 3 3 6-3z" fill="#F5F6F9"/>
<path transform="translate(326,1136)" d="m0 0h3v11l-11 8-1 2 6 3v2l-4 1-9-1-1 2 5 2v4l-9-1-4-1v2l5 2-1 3-8-1-5-1v2l5 1-1 4-12-1 4 2v3h-7l-9-3 4-3 9-4 2-3 5 1-1-4 7 1 4-2v-3l3-1 5-5 4-1 2-4 8-6 2-2z" fill="#F8F8FA"/>
<path transform="translate(741,362)" d="m0 0h9l6 12 5-12h8l-1 5-8 20h-9l-10-24z" fill="#3E393A"/>
<path transform="translate(297,440)" d="m0 0 2 2 2 11v9l-1-2-20 3h-3l-1 3-2-5-1-14 2 1v2l21-3z" fill="#EA8D43"/>
<path transform="translate(1563 1e3)" d="m0 0h138v1l-135 1 27 15 25 13 9 5 1 2-3 1-16-8-19-10-23-13-9-5v-1z" fill="#078369"/>
<path transform="translate(130,493)" d="m0 0h25l6 12-1 2h-24l-2-1-3-10-2-1z" fill="#D1D5E6"/>
<path transform="translate(1308,639)" d="m0 0h22v7l-8 19h-10l3-9 5-11h-5v4h-7z" fill="#383638"/>
<path transform="translate(1684,621)" d="m0 0h7l8 4 2 3v17l-5 5-3 2h-6v-9l3-19-7-1z" fill="#068369"/>
<path transform="translate(209,463)" d="m0 0h25l1 1 1 12-3 1h-24l-1-2z" fill="#F9645B"/>
<path transform="translate(969,290)" d="m0 0 7 1 6 7 1 2v11l-7 7-2 1h-11l-6-4-3-5v-11l6-7h3v2l-5 5-1 9 4 6 4 2h6v-16l4-3v-2l-6-3z" fill="#EBEEF4"/>
<path transform="translate(1609,672)" d="m0 0 5 2 19 9 9 3 8 2v9l-3 3-16-8-9-6-10-9z" fill="#433438"/>
<path transform="translate(683,364)" d="m0 0h7l5 4 1 2v9l-5 5h-9l-5-5-1-2v-6l4-6z" fill="#FC675E"/>
<path transform="translate(1571,655)" d="m0 0 3 2v2l5 2 5 3 10 1 9-2v2h-2v10l-2 6h-6l-10-6v-2h-2l-7-10-3-6z" fill="#393639"/>
<path transform="translate(183,367)" d="m0 0h25v13h-24l-1-1z" fill="#01B571"/>
<path transform="translate(961,294)" d="m0 0h14v4l-4 2 1 5v11l-1 1h-6l-6-4-3-5 1-9z" fill="#3C3739"/>
<path transform="translate(1572,872)" d="m0 0 2 3-6 50-5 39-2 16h-3l1-16 8-63 4-28z" fill="#504F51"/>
<path transform="translate(476,654)" d="m0 0 8 1 5 5 1 2v7l-4 6-8 9-2 4v7l6 11v9l-3 3-9 1-9-4-5-5-3-12v-14l2-13 4-8 7-6zm-1 2-9 3-8 9-3 12v19l2 9 4 5 9 4h7l3-3 1-4-3-8-4-7 1-10 9-10 4-6v-8l-4-4z" fill="#B22C3C"/>
<path transform="translate(1262,1103)" d="m0 0h62l1 6-64-1z" fill="#B22C3C"/>
<path transform="translate(507,468)" d="m0 0h2v45h-2l-1 2-7-31v-9l5-3h2z" fill="#D1D6E7"/>
<path transform="translate(630,771)" d="m0 0h1v33l-8-5-4-5v-12l4-7z" fill="#FA6459"/>
<path transform="translate(1024,488)" d="m0 0h21l11 2h31l-1 3-3 1h-27l-12-2h-20l-19 5-8 3h-3l2-4 13-5 7-2z" fill="#078369"/>
<path transform="translate(453,472)" d="m0 0 3 1-1 10-4 5-5 2-9-1-5-5-2-6 18-4z" fill="#F6F5F5"/>
<path transform="translate(236,463)" d="m0 0h23l1 2-1 10-1 1h-21l-1-2z" fill="#0176F9"/>
<path transform="translate(590,806)" d="m0 0h12l6 3 4 8v1h-31l2-7 4-4z" fill="#FD605C"/>
<path transform="translate(1841,796)" d="m0 0h7l5 3 2 4-1 6-4 4-2 1-9-1-4-4v-8z" fill="#F8F8FA"/>
<path transform="translate(237,454)" d="m0 0h22l2 5v5l-25-1 1 13 21-1 1-10 2 2v7l-2 4h-22l-2-3v-16z" fill="#0558D2"/>
<path transform="translate(710,362)" d="m0 0h8v18h11v7h-19z" fill="#413A39"/>
<path transform="translate(805,716)" d="m0 0 5 1 6 6 4-1 5-6h4l-1 5-6 6 2 4 5 5v4l-5-1v-2l-8-4-7 7h-4l1-4 5-5 2-5-3-1v-2h-2l-3-3z" fill="#F4F5F8"/>
<path transform="translate(1689,347)" d="m0 0 4 2 16 21 9 12v2l13-5 18-8h4l-1 3-29 13-6 1-14-19-15-20z" fill="#4E423D"/>
<path transform="translate(612,759)" d="m0 0 2 1-2 4-8 10-12 13-14 14-14 11-8 6-4 4h-8l5-4 17-12 10-8 22-22 11-14z" fill="#B22C3C"/>
<path transform="translate(1281,655)" d="m0 0 10 1 6 4 3 4v2h-32l1-5 7-5z" fill="#FC6D5F"/>
<path transform="translate(1091,530)" d="m0 0 2 1 2 7v6l-6 4-7 3h-3l-5-9v-3l14-7z" fill="#078369"/>
<path transform="translate(907,529)" d="m0 0h7l5 4 1 2v6l-4 5-2 1h-6l-4-2-2-3v-8z" fill="#F7F8F9"/>
<path transform="translate(1318,997)" d="m0 0h3l-2 4-5 4h-2l-2 4-7 7-7 11-4 9-2-1-4-16v-5l13-2 9-3 1-3h2l2-4z" fill="#EBEEF2"/>
<path transform="translate(986,406)" d="m0 0 6 2 10 7 14 8 16 6h10l7-4 4-5 3-7h3l-1 5-3 6-5 5-4 3-4 1h-9l-17-6-18-10-10-7z" fill="#078369"/>
<path transform="translate(1280,635)" d="m0 0h8l4 4 1 6-3 5-5 3-7-2-3-3v-8z" fill="#FC685E"/>
<path transform="translate(500,573)" d="m0 0h10l5 3 3 6-1 7-7 8-4 5-1 8 1 5v8l-3 6-5 4-2 1h-8l-6-5-3-8v-17l1-3h2v20l4 8 3 2 9-1 4-5 1-3v-8l-1-6 2-8 7-8 4-5-1-7-3-3-2-1h-10z" fill="#B22C3C"/>
<path transform="translate(1619,556)" d="m0 0 2 2-5 3 1 3-7 8-8 15-5 16-2 9-4 1-1-2 5-20 6-14 7-10 9-10z" fill="#EFF1F5"/>
<path transform="translate(198,609)" d="m0 0h8l4 4 1 6-3 5-4 2-7-1-4-5 1-7z" fill="#0657D1"/>
<path transform="translate(1510,950)" d="m0 0h8v2l-10 3-1 5 4 6 3 2v2l5 2 14 10 15 9 1-2 4 9-5-2-9-6-16-10-13-10-6-7-1-8 4-4z" fill="#068369"/>
<path transform="translate(536,579)" d="m0 0 2 1 5 22 5 28v2l8-3h25l11 4 5 4 4 6 2 9h-2l-5-12-8-6-7-2-17-1-13 2h-5l-6-31v-3l-4-2-6-4 1-2 7 4-1-7z" fill="#B22C3C"/>
<path transform="translate(257,608)" d="m0 0 6 2 3 4v7l-4 4-7 1-4-2-2-3v-7l4-5z" fill="#0657D1"/>
<path transform="translate(226,609)" d="m0 0h8l4 4v8l-3 4-8 1-3-1-3-5v-6z" fill="#0657D1"/>
<path transform="translate(670,899)" d="m0 0 2 3v10l-3-2-6 8-7 8-6 5-2 2-10 4-1 2h3v3l-4-1v-2l-17 6 2 20-2 4-3-23v-4l20-7 11-6 11-9 8-11z" fill="#D0DEEB"/>
<path transform="translate(426,551)" d="m0 0 4 1 4 8 4 20 5 10 9 7 7 3 1 2-1 9-6 8-9 8-12 5h-14l-3-1v-2h17l10-4 9-7 6-10v-6l-10-5-6-5-6-12-5-23z" fill="#B22C3C"/>
<path transform="translate(260,374)" d="m0 0 2 1 3 23v7l-2 3v39l-1 27h-1l-1-10z" fill="#E7EEF4"/>
<path transform="translate(1595,651)" d="m0 0h3l6 8 4 3v2l5 2 8 5 10 4 14 3v4l-15-2-16-7-10-8-7-7-3-6z" fill="#F1F2F7"/>
<path transform="translate(208,367)" d="m0 0h25l2 3-1 6h-25z" fill="#FA625A"/>
<path transform="translate(731,362)" d="m0 0h9v25h-8l-1-1z" fill="#403C3D"/>
<path transform="translate(1651,720)" d="m0 0h1l1 14h-2l-2 5-7 6-6 2h-13l-15-5-9-5-5-4v-3l4 2 10 6 16 5h12l5-2 4-4h2l3-9z" fill="#D0D6E7"/>
<path transform="translate(1789,394)" d="m0 0h1v11l-4 14-8 14-4 5-4 1-4-1-2 3-3-1 13-13 9-14 5-14z" fill="#D0DDEA"/>
<path transform="translate(419,644)" d="m0 0 5 2 7 6 3 7 1 29 4 13 9 13 3 6v12l-5 9-9 9h-2l2-4 5-4 4-5 3-9-1-9-10-15-4-8-2-8-1-29-4-8-8-5z" fill="#B22C3C"/>
<path transform="translate(1697,652)" d="m0 0h2l-2 6-7 13-8 8-5 2 5-12 3-14 11-2z" fill="#098F6A"/>
<path transform="translate(280,364)" d="m0 0h5l2 2v6l-2 2-22 3v-8l1-2z" fill="#FCAF1B"/>
<path transform="translate(583,534)" d="m0 0 2 2-3 1-3 10-1 10v14l3 10 4 4 7 3h7l3-3-1-7-6-12 1-8 5-7h2l-2 4-3 5 1 9 5 9 1 7-2 4-3 2h-8l-9-4-5-5-2-6-1-7v-12l2-13 4-8z" fill="#B22C3C"/>
<path transform="translate(1611,671)" d="m0 0 19 8 15 3 1-5 2-2h5l3 3v5l-4 3h-3v2l-11-2-16-7-11-6z" fill="#F99E59"/>
<path transform="translate(408,458)" d="m0 0h3l1 5h11l2 3-3 3-8 3-1 11-4-2-3-8v-12z" fill="#E68049"/>
<path transform="translate(1639,615)" d="m0 0 2 1-8 10-1 5 2 10 5 4 5 2h8v3l-6 1-8-2-6-5-4-9v-7l-3-1-11-1-1-3 7-1 10 1 6-7z" fill="#EEEFF5"/>
<path transform="translate(236,367)" d="m0 0h23v9h-22l-1-1z" fill="#0175F8"/>
<path transform="translate(548,954)" d="m0 0h26l5 1-2 1v2h13v-2l7-2 1 1v6h2v2l-13-1-20-3-19-4z" fill="#D0D6E7"/>
<path transform="translate(476,737)" d="m0 0h13l7 6 2 9-4 8-5 7-1 6h-2v-6l4-6 5-8v-6l-3-5-7-3-9 1-8 4-6 5-8 11-7 6-5 3-5 1v-2l11-6 7-7 4-6 8-8z" fill="#B22C3C"/>
<path transform="translate(1627,549)" d="m0 0 2 2-4 3-10 1-14 5-11 8-9 10-5 7h-2v-4h2l2-5 11-12 10-7 13-5z" fill="#F2974A"/>
<path transform="translate(1636,552)" d="m0 0h18l8 2 10 4 8 7 2 4 2 1-1 3-8-6-14-8-5-2-20-4z" fill="#D4D7E4"/>
<path transform="translate(508,272)" d="m0 0h1v171l-1-4-4-2 2-2h1z" fill="#D0DEEB"/>
<path transform="translate(1765,931)" d="m0 0h9l5 3 1 7-4 8-12 11-10 8h-2v-8l2 3 14-12 7-8 1-8-11-1z" fill="#078369"/>
<path transform="translate(1640,605)" d="m0 0h13l2 2-1 5-3 2-17 1-1-1v-5l4-3z" fill="#433638"/>
<path transform="translate(326,1136)" d="m0 0h3v11l-11 8-1 2 6 3v2l-4 1-9-1-1 2 5 2v4l-9-1-4-1-1 2v-3h2v-3l3-1 5-5 4-1 2-4 8-6 2-2z" fill="#F7F7FA"/>
<path transform="translate(1413,304)" d="m0 0h7l4 4v7l-5 4-7-1-3-5 1-6z" fill="#FC6B5E"/>
<path transform="translate(614,1072)" d="m0 0h2v5h-165v-1l162-1z" fill="#FDFDFD"/>
<path transform="translate(938,393)" d="m0 0 2 2-3 5 5 2v2l-8 2h-4l-2 4-10 12-1 2h-2v2l-4 1 1-5h2l3-6h2l2-4 3-4h2l2-5h2l2-4 4-5z" fill="#078368"/>
<path transform="translate(1777,900)" d="m0 0 5 5 5 8-15 9-5 2 8-17z" fill="#363638"/>
<path transform="translate(501,541)" d="m0 0h1v6l-8 6-10 4h-16l-8-3-7-6-1-6 5 5 10 6 5 1h7l10-3 9-6z" fill="#B22D3C"/>
<path transform="translate(1045,265)" d="m0 0 3 1 2 4v14l-4 7h-1l-1-11 1-6h-5v-4l-5 2 1-4z" fill="#E78146"/>
<path transform="translate(1691,624)" d="m0 0 4 3v12l-2 13h-6v-9l2-15z" fill="#05AE6F"/>
<path transform="translate(1582,611)" d="m0 0 2 4 1 6v22l-4 15-3 3-2-1 3-10 2-10v-18l-1-8-4-1z" fill="#078369"/>
<path transform="translate(1438,304)" d="m0 0 7 1 2 3v7l-3 3h-7l-3-2-1-7z" fill="#01B370"/>
<path transform="translate(581,303)" d="m0 0h3v17l-4-1-11-6 1-4z" fill="#3B3738"/>
<path transform="translate(416,720)" d="m0 0h5l1 4-6 1 12 6-1 4-19-8-7-3 1-3z" fill="#E68146"/>
<path transform="translate(1354 1e3)" d="m0 0 4 1-13 5-15 8-14 11-8 8-6 12-2 7-1 10-1 5-2-3 2-15 5-12 6-8 9-9 14-10 16-8z" fill="#353437"/>
<path transform="translate(420,1189)" d="m0 0h1l1 13-3 14h2v5l-11 5-6-1-3-2-2-3v-19l2-5h1v8l-1 14 1 3 3 1h7l4-4z" fill="#D0DEEB"/>
<path transform="translate(595,303)" d="m0 0 5 1 10 6-1 3-12 7h-2z" fill="#373639"/>
<path transform="translate(1221,1046)" d="m0 0h28l13 3 11 6 9 8 2 1v3l-6-2-3-5-10-7-9-3-13-2h-16l-19 3-6 2-4-1 12-4z" fill="#353437"/>
<path transform="translate(1573,812)" d="m0 0h1v51h-4v-15l2-35z" fill="#FAFBFB"/>
<path transform="translate(1833,735)" d="m0 0h19l4 2 8 2 12 7 5 5v2l3 1 5 9-1 3-8-12-9-8-10-5-11-3h-22l1-2z" fill="#F7F7FA"/>
<path transform="translate(1664,687)" d="m0 0 6 1-1 7-3 3-5-2-11-1 1-7z" fill="#D3D7E8"/>
<path transform="translate(606,603)" d="m0 0h12l6 2-4 1h-14l-7 3-2 3v7l3 5 6 3h15l7 3 1 4-8-4h-15l-8-4-4-7 1-9 7-6z" fill="#B22C3C"/>
<path transform="translate(1094,583)" d="m0 0h13l3 9 1 7-4-1-3-2v-2h-2v-2h-2v-2l-3-1z" fill="#514F50"/>
<path transform="translate(1536,710)" d="m0 0h2v2l-15 8h-3l-1 3-6 5-6 14-8 15-2-1v-4l2-1 2-5 10-20h2l2-4 9-6z" fill="#0657D1"/>
<path transform="translate(1009,279)" d="m0 0 11 2h7l7-1-1 4-4 4-2 1h-7l-6-3-5-6z" fill="#F4F5F8"/>
<path transform="translate(628,652)" d="m0 0 4 2v3l5 2 5 6 2 1v2h2l1 3 3 2 5 9 3 4 3 5 3 1v3l-4 1-7-12-9-12-11-12-8-6z" fill="#D0DEEB"/>
<path transform="translate(1043,293)" d="m0 0 3 1 2 5-1 8-4 5-5 2-7-1v-2l8-5 4-11z" fill="#45393A"/>
<path transform="translate(1572,784)" d="m0 0 1 2h2l1-2v16l-1 30h-1l-1-17-1 19h-1v-21z" fill="#E3EAF2"/>
<path transform="translate(188,418)" d="m0 0h16l1 1v5l-2 2h-14l-2-2v-5z" fill="#078369"/>
<path transform="translate(285,367)" d="m0 0h1l2 6-1 5-7 1-18 3-1-7-1-5 1-2 3 1-1 8 14-3h8z" fill="#E88B47"/>
<path transform="translate(968,596)" d="m0 0 3 1-7 11-8 8-8 4-6 1-1 2v-8l2 2 12-6 3-3h2l2-4 4-7z" fill="#555150"/>
<path transform="translate(1674,608)" d="m0 0 5 1 8 4 4 5-13 2-5-4-2-5z" fill="#433539"/>
<path transform="translate(932,524)" d="m0 0h2v18l2 10 3 6v3l-7-1-2-8v-11l1-13z" fill="#E68146"/>
<path transform="translate(209,380)" d="m0 0h26l-1 5h-25z" fill="#FB625A"/>
<path transform="translate(235,368)" d="m0 0h1l1 7 22 1-1-8h2l1 5-1 11-1-4h-23v5h-1z" fill="#0756CF"/>
<path transform="translate(975,297)" d="m0 0 4 1 2 7-2 6-5 5h-2l-1-16z" fill="#F99A6A"/>
<path transform="translate(632,1196)" d="m0 0h1l3 22 4 4h7l3-2 1-8-1-12 2 1 2 18-2 4-4 2-1 1-8-1-4-2-2-3-2-20z" fill="#D0DEEB"/>
<path transform="translate(631,768)" d="m0 0h1v37h-4l-8-6-3-5v-13l4-6 8-6zm-1 3-7 4-4 7v12l6 7 6 3v-33z" fill="#953642"/>
<path transform="translate(695,739)" d="m0 0h3v3h9l1 5-3 1h-18l-3-1 1-4 1-1h9z" fill="#F0F1F5"/>
<path transform="translate(209,454)" d="m0 0h25l1 4-1 1h-25z" fill="#FB625A"/>
<path transform="translate(458,453)" d="m0 0h12l1 4-6 4-9 1-5-2 2-4z" fill="#E58245"/>
<path transform="translate(259,436)" d="m0 0h1l1 19h-3-21l-2 4v-9h23z" fill="#0558D2"/>
<path transform="translate(283,416)" d="m0 0h7v7l-10 2h-6l-2-5 1-2z" fill="#E48544"/>
<path transform="translate(215,418)" d="m0 0h14l2 3-1 4-7 1h-8l-2-2v-5z" fill="#B22C3C"/>
<path transform="translate(183,453)" d="m0 0 2 1h22l1 5-25 1z" fill="#01B571"/>
<path transform="translate(1457,304)" d="m0 0 4 1 3 2 3-3 3 1-1 4v4l1 4h-4l-3-2-3 3h-3l-1-3 3-3-2-4z" fill="#3F3B3C"/>
<path transform="translate(1682,825)" d="m0 0h1l4 36v2h-4l-3-25 1-11z" fill="#E4EAF1"/>
<path transform="translate(298,452)" d="m0 0 3 1v9l-1-2-20 3h-3l-1 3-1-7 17-3h6z" fill="#E78848"/>
<path transform="translate(660,696)" d="m0 0 3 1 8 19 3 9 4 17 2 16 1 2h-3l-4-24-4-15-7-18-3-5z" fill="#0657D1"/>
<path transform="translate(1219,438)" d="m0 0 1 3-13 8-24 13-9 3 4-6 9-3 6-1 1-3 9-4 6-4 2-2 6-2z" fill="#D0DEEB"/>
<path transform="translate(1127,474)" d="m0 0 3 3-1 1-1 14h-3l-2-8h-2l-2 4-3 3h-2l1-5 6-7h2l1-3z" fill="#068369"/>
<path transform="translate(240,418)" d="m0 0h15l1 1v6h-16l-1-1v-5z" fill="#0657D1"/>
<path transform="translate(283,377)" d="m0 0 4 1-1 5-21 3-3-2 1-3z" fill="#FDB116"/>
<path transform="translate(1619,556)" d="m0 0 2 2-5 3 1 3-7 8-6 11h-5l2-6 7-10 9-10z" fill="#EEECED"/>
<path transform="translate(236,380)" d="m0 0h23v5h-23z" fill="#0176F9"/>
<path transform="translate(237,454)" d="m0 0h22l1 3-1 2h-23z" fill="#0176F9"/>
<path transform="translate(183,379)" d="m0 0 25 1v4l-2 1h-23z" fill="#01B571"/>
<path transform="translate(184,384)" d="m0 0h24v5h-24l-1-4z" fill="#078369"/>
<path transform="translate(421,430)" d="m0 0 5 1-1 4-5 3-4 7-4-1-1-4 3-6z" fill="#4C3237"/>
<path transform="translate(234,370)" d="m0 0h1v10h-26v-4h25z" fill="#A92F3D"/>
<path transform="translate(368,1135)" d="m0 0 1 3 6 2v3l-5-1-1 4 4 2 2 9 2 15 1 2v10l-2-3-4-27-5-5v-9z" fill="#F4F5F8"/>
<path transform="translate(565,718)" d="m0 0h5v2l-5 3 18 3 1 3-10-1-17-2 2-4z" fill="#E48344"/>
<path transform="translate(590,804)" d="m0 0h12l6 3 4 5 2 7h-14v-1l11-1-3-6v-2l-6-2h-12l-5 3-4 8-2-2 3-7 5-4z" fill="#B22C3C"/>
<path transform="translate(234,458)" d="m0 0h1v6l-26-1v-4z" fill="#AC2D3D"/>
<path transform="translate(294,451)" d="m0 0h4v5l-18 3h-4v-5z" fill="#FDB116"/>
<path transform="translate(234,384)" d="m0 0h1v6l-26-1v-4z" fill="#AC2D3D"/>
<path transform="translate(209,450)" d="m0 0h26v5l-26-1z" fill="#AD2D3D"/>
<path transform="translate(1247,429)" d="m0 0 4 1-1 5-2-1-5 5-4 6v8l2 6-4-2-2-4v-8l6-10 4-4h2z" fill="#EE754E"/>
<path transform="translate(445,425)" d="m0 0h10l6 5v5l-3 1-2-1v-2l-11-3-1-4z" fill="#433337"/>
<path transform="translate(184,450)" d="m0 0h24v5h-24l-1-4z" fill="#078369"/>
<path transform="translate(207,375)" d="m0 0h1v5h-24l-1-4z" fill="#078369"/>
<path transform="translate(1564,1056)" d="m0 0 5 2 2 2-9 3-8 3h-10l-10-2-2-2 4-1 3 1h17l7-3z" fill="#E48544"/>
<path transform="translate(846,478)" d="m0 0 5 1 12 6 1 3-18 2-7 3-3-1 6-4 8-2h7v-2l-9-3-2-1z" fill="#078369"/>
<path transform="translate(184,459)" d="m0 0h24v5l-24-1z" fill="#078369"/>
<path transform="translate(1044,290)" d="m0 0 5 4 1 3v9l-3 5-5 4-2 1h-9l-4-2 1-2 10 1 6-3 3-6-1-8-2-3z" fill="#EBEDF1"/>
<path transform="translate(1e3 266)" d="m0 0 6 1 3 2-1 3-2 1h-13l-2-1 1-4 1-1z" fill="#E78047"/>
<path transform="translate(1224,1147)" d="m0 0h2l-2 5-7 15-4 14-1 18h-1l-1-18 2-10 5-10 4-11h2z" fill="#F6F6F9"/>
<path transform="translate(1811,829)" d="m0 0 6 1 8 4 8 2 19 1-1 2h-20l-13-4v-2l-8-1-2-1z" fill="#F0F1F6"/>
<path transform="translate(1797,815)" d="m0 0 1 3-7 15 12-1-5 4-9 1-2-1v-6l1-2h3l1-4z" fill="#F5F6F9"/>
<path transform="translate(1596,776)" d="m0 0h2l2 7v16l1 4v7h-2v9h-1l-2-35z" fill="#D1DFEB"/>
<path transform="translate(433,438)" d="m0 0h3l-2 12-3 12 9 1v2l-5 1-7-3 1-9z" fill="#613239"/>
<path transform="translate(1006,241)" d="m0 0h7l2 3-2 3-12 3-3 2-1-2 3-6z" fill="#473338"/>
<path transform="translate(1648,675)" d="m0 0h5l3 3v5l-4 3-5-1-2-3 1-5z" fill="#433539"/>
<path transform="translate(1891,803)" d="m0 0 1 2-7 14-13 13-1 2h-6l1-3 9-6 7-7 6-11z" fill="#F3F4F8"/>
<path transform="translate(1576,727)" d="m0 0h3v17l-2 14-2-3v-20z" fill="#E8EEF4"/>
<path transform="translate(1356,729)" d="m0 0h5v10l-1 1h-11l1-5h6z" fill="#ECEAEC"/>
<path transform="translate(502,447)" d="m0 0 2 2-6 7 6 1v3l-8-1-1 10h-3v-7l3-8 5-6z" fill="#693139"/>
<path transform="translate(1716,1058)" d="m0 0h2v2l5 1h14l6-1v3l-7 2h-11l-11-3-2-2z" fill="#E48544"/>
<path transform="translate(1331,729)" d="m0 0h4v6h7v5h-11l-1-2v-8z" fill="#EEF1F6"/>
<path transform="translate(1691,664)" d="m0 0h2l-2 5-7 8-5 4-2-1 5-11 2-4v4l4-1v-2z" fill="#43393B"/>
<path transform="translate(607,744)" d="m0 0h1v9l-4 6-8 4-3-1h2v-2h2l3-6h2l2-4z" fill="#FD605C"/>
<path transform="translate(1670,762)" d="m0 0h4l3 20-1 4-1-2-2 1-3-18z" fill="#E6ECF2"/>
<path transform="translate(1645,651)" d="m0 0 4 1 5 5 4 2 12 1-1 3h-11l-6-3-6-5z" fill="#5C3138"/>
<path transform="translate(960,292)" d="m0 0h3v2l-5 5-1 9 4 6 4 2v3l-5-2-5-5-1-2v-11z" fill="#ECF0F4"/>
<path transform="translate(1337,709)" d="m0 0 5 1v4l-6 1-1 5h-5v-8l1-2z" fill="#F3F6F8"/>
<path transform="translate(1554,703)" d="m0 0 1 2h2v3l6 2 14 7v2l-7-1-10-5-6-4z" fill="#0657D1"/>
<path transform="translate(1627,549)" d="m0 0 2 2-4 3-10 1-9 3h-5v-2l14-5z" fill="#F6A134"/>
<path transform="translate(1350,709)" d="m0 0h7l4 1v10h-5v-6h-6z" fill="#F3F3F6"/>
<path transform="translate(1701,624)" d="m0 0 3 2 2 5v9l-3 8-2-1z" fill="#FBFBFB"/>
<path transform="translate(1318,997)" d="m0 0h3l-2 4-5 4h-2l-2 4-7 7-6 9h-2l2-5 6-9 5-2 1-3h2l2-4z" fill="#EFF3F7"/>
<path transform="translate(1062,576)" d="m0 0 18 4 10 2v1h-16l-10-2v-2h-2z" fill="#EBEFF4"/>
<path transform="translate(1684,621)" d="m0 0h7l8 4 2 3v8l-4-5-5-6-9-2z" fill="#443E3E"/>
<path transform="translate(960,271)" d="m0 0 5 1 5 4 4 8v5h-2l-3-8-8 1 1-3 4-2-6-5z" fill="#5C343B"/>
<path transform="translate(136,1183)" d="m0 0 6 1 24 11 3 1v2l-4-1-15-6-6-2-5-2v-2l-3-1z" fill="#F6F7F9"/>
<path transform="translate(1689,611)" d="m0 0h4l-1 8 6 2 2 1v3l-9-3-9-1 2-3 6-1-1-1z" fill="#F3F5F8"/>
<path transform="translate(110,1129)" d="m0 0m-17 1h9l6 3 1-2v4l4 2-1 3-4-1-7-6-9-1z" fill="#FAFBFB"/>
<path transform="translate(435,935)" d="m0 0h7l-4 5-2 10-2 15-2 3 1-16 1-12 2-3z" fill="#EFF3F7"/>
<path transform="translate(278,1177)" d="m0 0h8l-2 2 4 2v3h-7l-9-3 4-3z" fill="#F4F5F8"/>
<path transform="translate(413,463)" d="m0 0h10l2 3-3 3-3 1-7-1v-5z" fill="#FB615A"/>
<path transform="translate(1536,710)" d="m0 0h2v2l-15 8h-3l-1 3-6 5h-2v-2h2l2-4 9-6z" fill="#0657D1"/>
<path transform="translate(284,358)" d="m0 0h2v2h-2l1 4-17 3h-6l-5-2v-1l9-2 1 3 13-3z" fill="#F7F7FA"/>
<path transform="translate(105,1169)" d="m0 0 5 1 25 11-4 1-10-4-1-1-7-1-1-2-8-3z" fill="#F7F8FA"/>
<path transform="translate(1097,583)" d="m0 0h10l3 9-1 3-8-7z" fill="#393638"/>
<path transform="translate(1229,945)" d="m0 0 7 2 10 6 7 4v3l3 1 1 3-4-2-12-9-12-7z" fill="#E5EDF3"/>
<path transform="translate(1555,694)" d="m0 0h3v2h-2l-2 5v6l-13 4h-3l1-3h3l1-2h8v-6z" fill="#D0DEEB"/>
<path transform="translate(638,1108)" d="m0 0h2l4 25-1 12h-1l-4-33z" fill="#D0DEEB"/>
<path transform="translate(884,508)" d="m0 0 3 1-4 4h-2l-1 5-3 5-2 6-1 7v8l1 2h-3v-14l3-10 6-11z" fill="#F29E29"/>
<path transform="translate(286,1171)" d="m0 0 5 1v3l6 1-1 4-7-1-8-2 5-4z" fill="#FAFAFB"/>
<path transform="translate(159,1125)" d="m0 0h2l1 5 2 2v3l-5-1-5-4h-5l2-3 7-1z" fill="#FAFAFB"/>
<path transform="translate(1030,686)" d="m0 0h6l1 10h-7z" fill="#D0D6E7"/>
<path transform="translate(1666,631)" d="m0 0 2 1v11l4 4v2l-10 3v-3l6-1-3-4v-10z" fill="#68363A"/>
<path transform="translate(508,468)" d="m0 0h1v44h-1l-1-32-4-1 4-4z" fill="#D0DEEB"/>
<path transform="translate(1685,655)" d="m0 0h6l-1 6-4 8h-2v-9z" fill="#07AF6E"/>
<path transform="translate(561,649)" d="m0 0h10l10 7v2l-4-1-5-4-2-1h-9l-6 4h-2l1-3z" fill="#B22C3C"/>
<path transform="translate(1681,644)" d="m0 0h6v8l-7-1-2-2v-4z" fill="#F47552"/>
<path transform="translate(1781,424)" d="m0 0 1 3-8 11-4-2 1-4 5-5 4-1z" fill="#D0D6E7"/>
<path transform="translate(1670,709)" d="m0 0 4 4h-2l-2 4-5 4-7 2-2-2 11-6z" fill="#0657D1"/>
<path transform="translate(120,1131)" d="m0 0h7l3 1v3l4 1-1 4-4-1-6-5-3-1z" fill="#FAFAFB"/>
<path transform="translate(1306,1034)" d="m0 0v3l-5 12-2 14-1 5-2-3 2-15 5-12z" fill="#393639"/>
<path transform="translate(1657,781)" d="m0 0h2l1 9v14l-2-3-1-10h-2l-1-4z" fill="#DAE5EF"/>
<path transform="translate(1870,743)" d="m0 0 6 3 5 5v2l3 1 5 9-1 3-8-12-10-9z" fill="#F8F9FA"/>
<path transform="translate(620,1106)" d="m0 0h1l3 23v7l-2-2-2-6-1-18z" fill="#D0DEEB"/>
<path transform="translate(1281,1036)" d="m0 0 3 3 5 11 6 14v3l-4-1 1-2-5-13-6-13z" fill="#373639"/>
<path transform="translate(980,307)" d="m0 0 3 1-1 4-8 7h-9v-2l11-2 2-4z" fill="#EEF0F5"/>
<path transform="translate(1648,627)" d="m0 0 3 1v8l-3 3-3-2v-7z" fill="#4D3237"/>
<path transform="translate(1777,338)" d="m0 0 4 3 2 4 5 11 2 4v6l-2-1-5-14-6-10z" fill="#F0F4F7"/>
<path transform="translate(1749,371)" d="m0 0h4l-1 3-13 6-4-1 5-4z" fill="#473F3D"/>
<path transform="translate(266,1181)" d="m0 0 7 2 4 1v4l-9-1-4-2z" fill="#F9FAFB"/>
<path transform="translate(1682,847)" d="m0 0 3 1 1 2 1 13h-4l-1-5z" fill="#E8EEF3"/>
<path transform="translate(608,744)" d="m0 0h2v8l-3 6-6 5-5 2-4-1 12-6 3-5z" fill="#B22C3C"/>
<path transform="translate(1677,632)" d="m0 0 4 1v7l-2 3-4-1v-7z" fill="#463439"/>
<path transform="translate(1049,284)" d="m0 0 2 1 1 25-3-2v-11l-3-5 2-5z" fill="#654842"/>
<path transform="translate(1261,1007)" d="m0 0 6 5 12 18 2 6-3-3-12-18-5-6z" fill="#353437"/>
<path transform="translate(1358,1144)" d="m0 0 7 5 2 7 3 9h-2l-9-17z" fill="#F3F4F8"/>
<path transform="translate(1496,755)" d="m0 0h1l-1 7-8 17-3-1 3-6 3-9 3-1z" fill="#D0DEEB"/>
<path transform="translate(1520,1131)" d="m0 0 4 1v7l-2 5-3-1v-7z" fill="#F7F8FA"/>
<path transform="translate(1261,967)" d="m0 0 8 8 6 11 3 3v4h-2l-8-14-7-9z" fill="#E4ECF3"/>
<path transform="translate(1564,630)" d="m0 0h1l3 16 4 12h-2l-6-12-1-5z" fill="#D0DEEB"/>
<path transform="translate(450,442)" d="m0 0 4 1 2 4-1 5h-4l-2-4z" fill="#4F3238"/>
<path transform="translate(1528,1124)" d="m0 0 3 1v9l-3 3-2-1 1-11z" fill="#F6F8FA"/>
<path transform="translate(1024,256)" d="m0 0 2 1 4 11-1 3h-6l-2-1v-2l6 1-4-10z" fill="#5A343B"/>
<path transform="translate(1769,1136)" d="m0 0h3l2 11-4 1-2-6v-5z" fill="#F6F8FA"/>
<path transform="translate(1543,1111)" d="m0 0 3 1v9l-1 3-4-1 1-11z" fill="#F5F7F9"/>
<path transform="translate(1738,1110)" d="m0 0h3l2 9-1 3-4-1-1-10z" fill="#F5F6F9"/>
<path transform="translate(1727,1106)" d="m0 0 5 1 1 10h-4l-2-7z" fill="#F2F4F8"/>
<path transform="translate(422,448)" d="m0 0 4 1 1 2v6l-4 1-2-3v-6z" fill="#473338"/>
<path transform="translate(923,339)" d="m0 0h8l-3 2-12 5-6 4-3-2 9-5 5-3z" fill="#D0DDEA"/>
<path transform="translate(1761,1128)" d="m0 0 4 1 1 11h-4l-1-5z" fill="#F7F6F6"/>
<path transform="translate(1754,1121)" d="m0 0 3 2 1 3v7h-4l-1-4v-7z" fill="#F6F7F9"/>
<path transform="translate(1746,1116)" d="m0 0h3l2 10-1 2-4-1-1-10z" fill="#F7F8FA"/>
<path transform="translate(1232,1027)" d="m0 0 9 1 4 2h-32l3-2z" fill="#F4F7F9"/>
<path transform="translate(934,549)" d="m0 0 2 3 3 6v3l-7-1-1-6h2z" fill="#F26F52"/>
<path transform="translate(873,546)" d="m0 0 7 2-2 6-3 4-2-5z" fill="#187361"/>
<path transform="translate(1514,1139)" d="m0 0h2l1 8-2 5-3-1v-9z" fill="#F6F7F9"/>
<path transform="translate(1535,1118)" d="m0 0 4 1-1 10-4 1-1-2z" fill="#F8F8FA"/>
<path transform="translate(1013,584)" d="m0 0 5 2-4 2-16 3-4-1z" fill="#E4EBF2"/>
<path transform="translate(259,465)" d="m0 0 2 2v7l-2 4h-22l-1-2 22-1z" fill="#055CD7"/>
<path transform="translate(1829,836)" d="m0 0 23 1-1 2h-20l-2-1z" fill="#EEF0F5"/>
<path transform="translate(1572,784)" d="m0 0 1 2h2l1-2v16h-1l-1-5-2 3z" fill="#DAE4ED"/>
<path transform="translate(1638,636)" d="m0 0 4 1 4 3-2 4-5-2-3-2v-3z" fill="#E48544"/>
<path transform="translate(425,1157)" d="m0 0h1v9l-2 14-2 3v-9z" fill="#EFF3F7"/>
<path transform="translate(1007,255)" d="m0 0 3 2v7l-4 1-2-3 1-6z" fill="#4A3237"/>
<path transform="translate(80,1158)" d="m0 0 5 1 20 9-4 1-5-3-5-1-11-6z" fill="#F6F6F9"/>
<path transform="translate(92,1130)" d="m0 0m-7 1h7v2l-13 2-7 2v-2h2l1-3z" fill="#F1F2F7"/>
<path transform="translate(1552,1106)" d="m0 0 3 1v11l-3 1-1-1v-9z" fill="#FAFAFB"/>
<path transform="translate(514,523)" d="m0 0h2l-1 6-6 10h-1v-6z" fill="#B22C3C"/>
<path transform="translate(261,379)" d="m0 0h1l3 21h-2v5h-1l-1-13z" fill="#EFF1F5"/>
<path transform="translate(1267,1052)" d="m0 0 7 4 8 7 2 1v3l-6-2-3-5-8-6z" fill="#363A3B"/>
<path transform="translate(1891,771)" d="m0 0h2l2 13v8l-2 2-2-18z" fill="#F7F7FA"/>
<path transform="translate(1192,512)" d="m0 0 3 1-1 3-16 6v-2z" fill="#D0DEEB"/>
<path transform="translate(1679,815)" d="m0 0 3 1v11l-1 6-2-3z" fill="#F0F4F7"/>
<path transform="translate(1032,414)" d="m0 0h5l1 1v5l-1 1h-5l-1-5z" fill="#078369"/>
<path transform="translate(1059,339)" d="m0 0h11l6 3 4 5-1 3-4-5-5-3-11-2z" fill="#D1DEEB"/>
<path transform="translate(1034,255)" d="m0 0 3 1v8l-4 1-1-1v-7z" fill="#443338"/>
<path transform="translate(451,963)" d="m0 0h1v17l-1 3h-2v-10z" fill="#F2F5F8"/>
<path transform="translate(1698,633)" d="m0 0 3 3v9l-2 3h-2v-8z" fill="#01B170"/>
<path transform="translate(1037,446)" d="m0 0h5l1 1v5l-5 1-2-2z" fill="#078369"/>
<path transform="translate(1237,444)" d="m0 0h1l1 9 2 6-4-2-2-4v-7z" fill="#E48544"/>
<path transform="translate(1590,1065)" d="m0 0h2l5 14 6 12h-3l-2-5-7-15z" fill="#F2A22C"/>
<path transform="translate(1282,1056)" d="m0 0 9 9v2h-6l-3-8z" fill="#EAEFF4"/>
<path transform="translate(1314,1044)" d="m0 0 3 1-6 5-3 3h-2v2l-6 4 2-4 5-5z" fill="#ECF0F5"/>
<path transform="translate(1043,545)" d="m0 0 5 2-1 5h-5l-1-1v-5z" fill="#078369"/>
<path transform="translate(1789,394)" d="m0 0h1v11l-5 10h-2l3-9z" fill="#D0DEEB"/>
<path transform="translate(1044,290)" d="m0 0 5 4 1 3v9l-3 1v-8l-3-6z" fill="#EFF2F6"/>
<path transform="translate(1858,920)" d="m0 0 4 4v19l-2 1v-14z" fill="#F2F6F8"/>
<path transform="translate(1020,581)" d="m0 0h6l1 3-5 2h-6v-3z" fill="#F5F6F9"/>
<path transform="translate(1043,511)" d="m0 0 5 1v5l-5 1-2-2v-4z" fill="#078369"/>
<path transform="translate(1042,478)" d="m0 0 4 1 1 4-2 2-5-1v-5z" fill="#078369"/>
<path transform="translate(233,363)" d="m0 0 4 1-3 1-1 2-22-1 1-2h17z" fill="#FDFDFD"/>
<path transform="translate(326,1136)" d="m0 0h3v11l-8 5 2-4 3-3z" fill="#F4F5F8"/>
<path transform="translate(1605,574)" d="m0 0h2l-1 5-2 4h-5l2-6z" fill="#EFEAE9"/>
<path transform="translate(177,1116)" d="m0 0 1 3-3 5-13 2 1-2 4-2 7-1z" fill="#F7F7FA"/>
<path transform="translate(1208,998)" d="m0 0 4 2 8 7 3 2v2l-4-2-9-7z" fill="#EAF0F5"/>
<path transform="translate(1240,478)" d="m0 0h7l-4 2-6 2zm-5 4 2 1v2l-3 1-3 4-3-1 5-5z" fill="#E9EEF3"/>
<path transform="translate(1232,460)" d="m0 0 8 6 6 3 5 1-4 2-10-5-6-5z" fill="#F2A12D"/>
<path transform="translate(1676,607)" d="m0 0 9 2 7 1-3 1-1 4-6-4-6-3z" fill="#F29847"/>
<path transform="translate(1318,997)" d="m0 0h3l-2 4-5 4h-2l-2 4-2 1 1-4h2l2-4z" fill="#E2EAF2"/>
<path transform="translate(285,857)" d="m0 0 3 3-5 8-2-1 1-7z" fill="#E2E5EE"/>
<path transform="translate(1793,771)" d="m0 0h1l-2 25h-1v-22z" fill="#F6F7F9"/>
<path transform="translate(969,522)" d="m0 0h3l1 3-4 4h-5l1 3-5-1 1-3 8-2z" fill="#EFA035"/>
<path transform="translate(1252,429)" d="m0 0 2 3v3l5 2v2l-7-1-2-2 1-6z" fill="#E48544"/>
<path transform="translate(1176,951)" d="m0 0h2l7 13-1 3-4-3-2-8z" fill="#E5ECF3"/>
<path transform="translate(1596,776)" d="m0 0h2l2 7-2 7h-1l-1-6z" fill="#D9E4EE"/>
<path transform="translate(612,736)" d="m0 0 12 1 6-1v3h-18z" fill="#B22C3C"/>
<path transform="translate(136,1183)" d="m0 0 6 1 7 4-3 1-6-1-1-3-3-1z" fill="#F7F8FA"/>
<path transform="translate(1577,742)" d="m0 0h1l-1 16-2-3v-11z" fill="#FDFDFD"/>
<path transform="translate(1555,694)" d="m0 0h3v2h-2l-2 5v6l-4-1 2-7z" fill="#DAE5EF"/>
<path transform="translate(1608,567)" d="m0 0 3 1-1 4-3 3-4 1 2-5z" fill="#EDF0F5"/>
<path transform="translate(1248,1027)" d="m0 0 4 1 6 5-2 1-10-3 4-1v-2z" fill="#EAF0F5"/>
<path transform="translate(312,989)" d="m0 0h1v14h-1v-5l-4 1 2-6z" fill="#DDDADD"/>
<path transform="translate(1597,964)" d="m0 0 4 1-1 6-5-1 1-5z" fill="#633138"/>
<path transform="translate(1573,852)" d="m0 0h1v11h-4v-10l2 4z" fill="#DCE6EF"/>
<path transform="translate(1891,803)" d="m0 0 1 2-6 12-3 1 2-5 5-9z" fill="#F6F6F9"/>
<path transform="translate(1788,406)" d="m0 0 1 4-5 13-2 1 2-9z" fill="#D1D6E7"/>
<path transform="translate(215,1129)" d="m0 0 4 1-2 1-4 8-3 1 2-6z" fill="#F3F4F8"/>
<path transform="translate(610,1061)" d="m0 0 2 3 1 2v8h-3z" fill="#FDFDFD"/>
<path transform="translate(1777,895)" d="m0 0 4 2 2 4-1 4-5-5z" fill="#E0E5EE"/>
<path transform="translate(1595,651)" d="m0 0h3l3 5v3l-4-1-3-6z" fill="#EEF2F7"/>
<path transform="translate(1554,632)" d="m0 0h2l2 5 1 1v5l-3 1-1-2z" fill="#D0DEEB"/>
<path transform="translate(1076,580)" d="m0 0 10 1 4 2h-16z" fill="#E2E8F1"/>
<path transform="translate(393,568)" d="m0 0h2v7l-3 7-2-2v-4h3l-1-7z" fill="#D0DEEB"/>
<path transform="translate(429,460)" d="m0 0 5 2 6 1v2l-5 1-7-3z" fill="#553138"/>
<path transform="translate(779,368)" d="m0 0h12l-3 3h-9z" fill="#EAEFF5"/>
<path transform="translate(1695,312)" d="m0 0 3 1-5 3-7 3h-3v-2z" fill="#F2F6F8"/>
<path transform="translate(409,1097)" d="m0 0h2l1 10-2 2-2-5v-6z" fill="#FDFDFD"/>
<path transform="translate(1674,783)" d="m0 0 3 3 1 6-2 2-2-1z" fill="#EEF2F6"/>
<path transform="translate(1819,740)" d="m0 0v3l-10 7-2-1 2-4 5-2z" fill="#F8F8FA"/>
<path transform="translate(1688,625)" d="m0 0h1v11l-1 7h-3l2-12v-5z" fill="#F7A620"/>
<path transform="translate(1257,426)" d="m0 0h4l-1 3-4 2h-3l-3-4z" fill="#F17150"/>
<path transform="translate(910,426)" d="m0 0 4 2-8 6v2l-3-1 6-8z" fill="#EAEFF4"/>
<path transform="translate(284,358)" d="m0 0h2v2h-2l1 4-5 1h-8v-1l8-2z" fill="#FDFDFD"/>
<path transform="translate(960,292)" d="m0 0h3v2l-5 5-2 3h-2l1-5z" fill="#E9E9ED"/>
<path transform="translate(1847,909)" d="m0 0 4 1 7 6-1 3-8-7z" fill="#EFF3F7"/>
<path transform="translate(1503,745)" d="m0 0 1 2-5 10-2-1v-4l2-1 3-5z" fill="#1055BF"/>
<path transform="translate(1699,647)" d="m0 0 2 2h-2l-2 4-1 1h-6l3-3z" fill="#F2F5F8"/>
<path transform="translate(1689,611)" d="m0 0h4l-1 8h-8v-1l6-1-1-1z" fill="#E3E6EC"/>
<path transform="translate(119,1175)" d="m0 0 9 3 7 3-4 1-10-4z" fill="#F6F7F9"/>
<path transform="translate(67,1152)" d="m0 0 9 3 4 3-6-1-7-2z" fill="#F5F6F9"/>
<path transform="translate(368,1135)" d="m0 0 1 3 6 2v3l-5-1-2 2z" fill="#FDFDFD"/>
<path transform="translate(1357,1021)" d="m0 0 2 1-8 7-4 1 1-3z" fill="#F2F5F8"/>
<path transform="translate(1627,549)" d="m0 0 2 2-4 3-10-2v-1z" fill="#F39A44"/>
<path transform="translate(856,547)" d="m0 0 11 6-4 1-9-5z" fill="#D0DEEB"/>
<path transform="translate(502,447)" d="m0 0 2 2-6 7h-3l2-5z" fill="#56333A"/>
<path transform="translate(1749,371)" d="m0 0h4l-1 3-6 3h-2l1-4z" fill="#4F443F"/>
<path transform="translate(152,1129)" d="m0 0 5 2 1 3h-3-3l-2-1v-3z" fill="#FDA649"/>
<path transform="translate(1233,980)" d="m0 0 5 2 9 9h-3l-11-10z" fill="#353437"/>
<path transform="translate(1575,773)" d="m0 0h1v11l-1 2h-2v-7z" fill="#FCFCFC"/>
<path transform="translate(292,666)" d="m0 0 6 1v3h-7l-1-3z" fill="#D0DEEB"/>
<path transform="translate(1030,576)" d="m0 0 2 1v2l-4 1v2h-5l-1-2z" fill="#ECF0F3"/>
<path transform="translate(274,1181)" d="m0 0 9 3-4 1v3h-2v-4l-5-1z" fill="#FDA93C"/>
<path transform="translate(427,1142)" d="m0 0h1v5h2l-1 4-3 3v-10z" fill="#F2F5F8"/>
<path transform="translate(212,1142)" d="m0 0 4 3-1 4-2 4h-2z" fill="#F4F5F8"/>
<path transform="translate(167,636)" d="m0 0h1l1 11-3 1-2-1v-4l2-1z" fill="#FDFDFD"/>
<path transform="translate(413,463)" d="m0 0h10l2 3-12-1z" fill="#E68046"/>
<path transform="translate(635,304)" d="m0 0 3 1-1 2h-2l-1 7 2 2h-3l-1-1 1-9z" fill="#D1D6E7"/>
</svg>
